<svg xmlns="http://www.w3.org/2000/svg" width="1202" height="398" fill="none"><path fill="#fff" stroke="#03030F" d="M753.5 207.042h310v160h-310z"/><path fill="#D4ECFE" stroke="#03030F" d="m272.496 367.042-1.494-167.282 58.439-53.718H504.5v221z"/><path fill="#26A0F8" stroke="#03030F" d="M448.5 142.042h62v225h-62z"/><mask id="a" width="63" height="227" x="448" y="141" maskUnits="userSpaceOnUse" style="mask-type:alpha"><path fill="#26A0F8" stroke="#000" d="M448.5 142.042h62v225h-62z"/></mask><g fill="#0A223E" mask="url(#a)"><path d="M451.711 104.639h1v444.883h-1zM457.711 104.639h1v444.883h-1zM463.711 104.639h1v444.883h-1zM469.711 104.639h1v444.883h-1zM475.711 104.639h1v444.883h-1zM481.711 104.639h1v444.883h-1zM487.711 104.639h1v444.883h-1zM493.711 104.639h1v444.883h-1zM499.711 104.639h1v444.883h-1zM505.711 104.639h1v444.883h-1z"/></g><path fill="#fff" stroke="#03030F" d="m271.781 199.042 61.914-57h176.039l-60.931 57z"/><path fill="#D4ECFE" d="M558.471 71.967h75v294.575h-75z"/><path fill="#D4ECFE" d="M518.471 148.967h75v217.064h-75z"/><path fill="#fff" d="M569.699 81.967h8v28h-8zM583.699 81.967h5v28h-5zM569.699 120.967h8v28h-8zM583.699 120.967h5v28h-5zM569.699 163.967a4 4 0 0 1 8 0v24h-8zM569.699 198.967h8v28h-8zM525.844 198.967H552.5v45.9h-26.656zM525.844 159.967H552.5v28h-26.656zM583.699 159.967h5v28h-5zM583.699 198.967h5v28h-5zM567.471 240.967h16v28h-16z"/><path stroke="#03030F" d="M279.711 353.542h-79M0 367.542h1144"/><path fill="#03030F" stroke="#03030F" stroke-miterlimit="10" d="M554.114 338.542h-40.233c-7.798 0-14.119 6.303-14.119 14.079 0 7.775 6.321 14.078 14.119 14.078h40.233c7.798 0 14.119-6.303 14.119-14.078 0-7.776-6.321-14.079-14.119-14.079Z"/><path fill="#fff" stroke="#03030F" d="M546.352 338.542h-40.233c-7.798 0-14.119 6.303-14.119 14.079 0 7.775 6.321 14.078 14.119 14.078h40.233c7.798 0 14.119-6.303 14.119-14.078 0-7.776-6.321-14.079-14.119-14.079Z"/><path fill="#03030F" d="M519.386 356.568a4.992 4.992 0 0 1-5.026-3.235 5 5 0 0 1-.298-2.095 5.05 5.05 0 0 1 1.454-3.829 5.3 5.3 0 0 1 3.87-1.408 5.44 5.44 0 0 1 4.465 1.961l-1.589 1.325a3.25 3.25 0 0 0-2.814-1.356 3.2 3.2 0 0 0-2.374.886 3.27 3.27 0 0 0-.889 2.421 3.404 3.404 0 0 0 .889 2.482 3.143 3.143 0 0 0 2.374.918 3.235 3.235 0 0 0 2.814-1.345l1.589 1.335a5.46 5.46 0 0 1-4.465 1.94M527.007 355.276v-2.796h-2.823v-1.701h2.823v-2.806h1.684v2.806h2.813v1.701h-2.813v2.796zM535.392 355.276v-2.796h-2.824v-1.701h2.824v-2.806h1.684v2.806h2.824v1.701h-2.824v2.796z"/><path fill="#fff" stroke="#03030F" stroke-miterlimit="10" d="M747 93.542H620v274h127z"/><mask id="b" width="24" height="276" x="747" y="93" maskUnits="userSpaceOnUse" style="mask-type:alpha"><path fill="#03030F" stroke="#0A184C" stroke-miterlimit="10" d="M748 367.542h22v-274h-22z"/></mask><g stroke-miterlimit="10" mask="url(#b)"><path fill="#03030F" stroke="#03030F" d="M748 367.542h22v-274h-22z"/><path stroke="#26A0F8" d="m770.793 186.462-9.27 9.246 9.27 9.246 9.269-9.246z"/><path stroke="#26A0F8" d="m752.287 186.462-9.269 9.246 9.269 9.246 9.269-9.246zM770.793 168.009l-9.27 9.246 9.27 9.247 9.269-9.247z"/><path stroke="#26A0F8" d="m752.287 168.004-9.269 9.246 9.269 9.247 9.269-9.247zM770.793 149.549l-9.27 9.246 9.27 9.247 9.269-9.247z"/><path stroke="#26A0F8" d="m752.287 149.549-9.269 9.246 9.269 9.247 9.269-9.247zM770.793 204.925l-9.27 9.246 9.27 9.246 9.269-9.246z"/><path stroke="#26A0F8" d="m752.287 204.926-9.269 9.246 9.269 9.247 9.269-9.247zM770.793 186.462l-9.27 9.246 9.27 9.246 9.269-9.246z"/><path stroke="#26A0F8" d="m752.287 186.465-9.269 9.246 9.269 9.246 9.269-9.246zM770.793 168.012l-9.27 9.246 9.27 9.246 9.269-9.246z"/><path stroke="#26A0F8" d="m752.287 168.002-9.269 9.246 9.269 9.246 9.269-9.246zM770.793 223.389l-9.27 9.246 9.27 9.246 9.269-9.246z"/><path stroke="#26A0F8" d="m752.287 223.389-9.269 9.246 9.269 9.246 9.269-9.246zM770.793 204.926l-9.27 9.247 9.27 9.246 9.269-9.246z"/><path stroke="#26A0F8" d="m752.287 204.927-9.269 9.246 9.269 9.246 9.269-9.246zM770.793 186.467l-9.27 9.246 9.27 9.246 9.269-9.246z"/><path stroke="#26A0F8" d="m752.287 186.467-9.269 9.246 9.269 9.246 9.269-9.246zM770.793 241.846l-9.27 9.246 9.27 9.246 9.269-9.246z"/><path stroke="#26A0F8" d="m752.287 241.848-9.269 9.246 9.269 9.246 9.269-9.246zM770.793 223.383l-9.27 9.247 9.27 9.246 9.269-9.246z"/><path stroke="#26A0F8" d="m752.287 223.383-9.269 9.247 9.269 9.246 9.269-9.246zM770.793 204.923l-9.27 9.247 9.27 9.246 9.269-9.246z"/><path stroke="#26A0F8" d="m752.287 204.923-9.269 9.247 9.269 9.246 9.269-9.246zM770.793 260.307l-9.27 9.247 9.27 9.246 9.269-9.246z"/><path stroke="#26A0F8" d="m752.287 260.307-9.269 9.247 9.269 9.246 9.269-9.246zM770.793 241.846l-9.27 9.246 9.27 9.246 9.269-9.246z"/><path stroke="#26A0F8" d="m752.287 241.846-9.269 9.246 9.269 9.246 9.269-9.246zM770.793 223.383l-9.27 9.247 9.27 9.246 9.269-9.246z"/><path stroke="#26A0F8" d="m752.287 223.383-9.269 9.247 9.269 9.246 9.269-9.246zM770.793 278.77l-9.27 9.247 9.27 9.246 9.269-9.246z"/><path stroke="#26A0F8" d="m752.287 278.77-9.269 9.247 9.269 9.246 9.269-9.246zM770.793 260.309l-9.27 9.246 9.27 9.246 9.269-9.246z"/><path stroke="#26A0F8" d="m752.287 260.309-9.269 9.246 9.269 9.246 9.269-9.246zM770.793 241.846l-9.27 9.247 9.27 9.246 9.269-9.246z"/><path stroke="#26A0F8" d="m752.287 241.846-9.269 9.247 9.269 9.246 9.269-9.246zM770.793 297.23l-9.27 9.246 9.27 9.246 9.269-9.246z"/><path stroke="#26A0F8" d="m752.287 297.231-9.269 9.246 9.269 9.246 9.269-9.246zM770.793 278.77l-9.27 9.246 9.27 9.246 9.269-9.246z"/><path stroke="#26A0F8" d="m752.287 278.767-9.269 9.246 9.269 9.246 9.269-9.246zM770.793 260.307l-9.27 9.246 9.27 9.246 9.269-9.246z"/><path stroke="#26A0F8" d="m752.287 260.307-9.269 9.246 9.269 9.246 9.269-9.246zM770.787 315.687l-9.269 9.247 9.269 9.246 9.269-9.246z"/><path stroke="#26A0F8" d="m752.287 315.687-9.269 9.247 9.269 9.246 9.269-9.246zM770.793 297.226l-9.27 9.246 9.27 9.246 9.269-9.246z"/><path stroke="#26A0F8" d="m752.287 297.226-9.269 9.246 9.269 9.246 9.269-9.246zM770.793 278.763l-9.27 9.246 9.27 9.247 9.269-9.247z"/><path stroke="#26A0F8" d="m752.287 278.763-9.269 9.246 9.269 9.247 9.269-9.247zM770.793 334.152l-9.27 9.246 9.27 9.246 9.269-9.246z"/><path stroke="#26A0F8" d="m752.287 334.152-9.269 9.246 9.269 9.246 9.269-9.246zM770.793 315.69l-9.27 9.246 9.27 9.246 9.269-9.246z"/><path stroke="#26A0F8" d="m752.293 315.69-9.27 9.246 9.27 9.246 9.269-9.246zM770.801 297.228l-9.27 9.246 9.27 9.246 9.269-9.246z"/><path stroke="#26A0F8" d="m752.293 297.228-9.27 9.246 9.27 9.246 9.269-9.246zM770.793 352.612l-9.27 9.246 9.27 9.246 9.269-9.246z"/><path stroke="#26A0F8" d="m752.287 352.612-9.269 9.246 9.269 9.246 9.269-9.246zM770.793 334.15l-9.27 9.246 9.27 9.246 9.269-9.246z"/><path stroke="#26A0F8" d="m752.287 334.15-9.269 9.246 9.269 9.246 9.269-9.246zM770.793 315.688l-9.27 9.246 9.27 9.246 9.269-9.246z"/><path stroke="#26A0F8" d="m752.293 315.69-9.27 9.246 9.27 9.246 9.269-9.246zM770.791 186.465l-9.27 9.246 9.27 9.246 9.269-9.246z"/><path stroke="#26A0F8" d="m752.283 186.466-9.269 9.246 9.269 9.247 9.269-9.247zM770.791 168.01l-9.27 9.247 9.27 9.246 9.269-9.246z"/><path stroke="#26A0F8" d="m752.283 168.002-9.269 9.246 9.269 9.246 9.269-9.246zM770.791 149.55l-9.27 9.247 9.27 9.246 9.269-9.246z"/><path stroke="#26A0F8" d="m752.283 149.552-9.269 9.246 9.269 9.246 9.269-9.246zM770.797 204.925l-9.27 9.246 9.27 9.246 9.269-9.246z"/><path stroke="#26A0F8" d="m752.289 204.926-9.269 9.246 9.269 9.247 9.269-9.247zM770.797 186.462l-9.27 9.246 9.27 9.246 9.269-9.246z"/><path stroke="#26A0F8" d="m752.289 186.465-9.269 9.246 9.269 9.246 9.269-9.246zM770.797 168.012l-9.27 9.246 9.27 9.246 9.269-9.246z"/><path stroke="#26A0F8" d="m752.289 168.002-9.269 9.246 9.269 9.246 9.269-9.246zM770.797 223.389l-9.27 9.246 9.27 9.246 9.269-9.246z"/><path stroke="#26A0F8" d="m752.289 223.389-9.269 9.246 9.269 9.246 9.269-9.246zM770.797 204.926l-9.27 9.247 9.27 9.246 9.269-9.246z"/><path stroke="#26A0F8" d="m752.289 204.926-9.269 9.247 9.269 9.246 9.269-9.246zM770.797 186.467l-9.27 9.246 9.27 9.246 9.269-9.246z"/><path stroke="#26A0F8" d="m752.289 186.467-9.269 9.246 9.269 9.246 9.269-9.246zM770.797 241.846l-9.27 9.246 9.27 9.246 9.269-9.246z"/><path stroke="#26A0F8" d="m752.289 241.848-9.269 9.246 9.269 9.246 9.269-9.246zM770.797 223.386l-9.27 9.246 9.27 9.246 9.269-9.246z"/><path stroke="#26A0F8" d="m752.289 223.386-9.269 9.246 9.269 9.246 9.269-9.246zM770.797 204.922l-9.27 9.246 9.27 9.246 9.269-9.246z"/><path stroke="#26A0F8" d="m752.289 204.925-9.269 9.246 9.269 9.246 9.269-9.246zM770.797 260.307l-9.27 9.247 9.27 9.246 9.269-9.246z"/><path stroke="#26A0F8" d="m752.289 260.307-9.269 9.247 9.269 9.246 9.269-9.246zM770.797 241.846l-9.27 9.246 9.27 9.246 9.269-9.246z"/><path stroke="#26A0F8" d="m752.289 241.846-9.269 9.246 9.269 9.246 9.269-9.246zM770.797 223.383l-9.27 9.247 9.27 9.246 9.269-9.246z"/><path stroke="#26A0F8" d="m752.289 223.383-9.269 9.247 9.269 9.246 9.269-9.246zM770.797 278.77l-9.27 9.247 9.27 9.246 9.269-9.246z"/><path stroke="#26A0F8" d="m752.289 278.77-9.269 9.247 9.269 9.246 9.269-9.246zM770.797 260.309l-9.27 9.246 9.27 9.246 9.269-9.246z"/><path stroke="#26A0F8" d="m752.289 260.309-9.269 9.246 9.269 9.246 9.269-9.246zM770.797 241.846l-9.27 9.247 9.27 9.246 9.269-9.246z"/><path stroke="#26A0F8" d="m752.289 241.846-9.269 9.247 9.269 9.246 9.269-9.246zM770.797 297.23l-9.27 9.246 9.27 9.246 9.269-9.246z"/><path stroke="#26A0F8" d="m752.289 297.23-9.269 9.246 9.269 9.246 9.269-9.246zM770.797 278.767l-9.27 9.246 9.27 9.246 9.269-9.246z"/><path stroke="#26A0F8" d="m752.289 278.767-9.269 9.246 9.269 9.246 9.269-9.246zM770.797 260.307l-9.27 9.246 9.27 9.246 9.269-9.246z"/><path stroke="#26A0F8" d="m752.289 260.307-9.269 9.246 9.269 9.246 9.269-9.246zM770.797 315.688l-9.27 9.246 9.27 9.246 9.269-9.246z"/><path stroke="#26A0F8" d="m752.289 315.688-9.269 9.246 9.269 9.246 9.269-9.246zM770.797 297.226l-9.27 9.246 9.27 9.246 9.269-9.246z"/><path stroke="#26A0F8" d="m752.289 297.226-9.269 9.246 9.269 9.246 9.269-9.246zM770.797 278.766l-9.27 9.246 9.27 9.246 9.269-9.246z"/><path stroke="#26A0F8" d="m752.289 278.766-9.269 9.246 9.269 9.246 9.269-9.246zM770.797 334.152l-9.27 9.246 9.27 9.246 9.269-9.246z"/><path stroke="#26A0F8" d="m752.283 334.152-9.269 9.246 9.269 9.246 9.269-9.246zM770.797 315.69l-9.27 9.246 9.27 9.246 9.269-9.246z"/><path stroke="#26A0F8" d="m752.289 315.69-9.269 9.246 9.269 9.246 9.269-9.246zM770.797 297.228l-9.27 9.246 9.27 9.246 9.269-9.246z"/><path stroke="#26A0F8" d="m752.289 297.228-9.269 9.246 9.269 9.246 9.269-9.246zM770.791 352.612l-9.27 9.246 9.27 9.246 9.269-9.246z"/><path stroke="#26A0F8" d="m752.283 352.612-9.269 9.246 9.269 9.246 9.269-9.246zM770.791 334.15l-9.27 9.246 9.27 9.246 9.269-9.246z"/><path stroke="#26A0F8" d="m752.283 334.15-9.269 9.246 9.269 9.246 9.269-9.246zM770.791 315.688l-9.27 9.246 9.27 9.246 9.269-9.246z"/><path stroke="#26A0F8" d="m752.291 315.688-9.27 9.246 9.27 9.246 9.269-9.246zM770.793 75.23l-9.27 9.246 9.27 9.246 9.269-9.246z"/><path stroke="#26A0F8" d="m752.287 75.231-9.269 9.246 9.269 9.246 9.269-9.246zM770.787 93.688l-9.269 9.246 9.269 9.246 9.269-9.246z"/><path stroke="#26A0F8" d="m752.287 93.687-9.269 9.247 9.269 9.246 9.269-9.246zM770.793 75.226l-9.27 9.246 9.27 9.246 9.269-9.246z"/><path stroke="#26A0F8" d="m752.287 75.226-9.269 9.246 9.269 9.246 9.269-9.246zM770.793 112.152l-9.27 9.246 9.27 9.246 9.269-9.246z"/><path stroke="#26A0F8" d="m752.287 112.152-9.269 9.246 9.269 9.246 9.269-9.246zM770.793 93.69l-9.27 9.246 9.27 9.246 9.269-9.246z"/><path stroke="#26A0F8" d="m752.293 93.69-9.27 9.246 9.27 9.246 9.269-9.246zM770.801 75.228l-9.27 9.246 9.27 9.246 9.269-9.246z"/><path stroke="#26A0F8" d="m752.293 75.228-9.27 9.246 9.27 9.246 9.269-9.246zM770.793 130.612l-9.27 9.246 9.27 9.246 9.269-9.246z"/><path stroke="#26A0F8" d="m752.287 130.612-9.269 9.246 9.269 9.246 9.269-9.246zM770.793 112.15l-9.27 9.246 9.27 9.246 9.269-9.246z"/><path stroke="#26A0F8" d="m752.287 112.15-9.269 9.246 9.269 9.246 9.269-9.246zM770.793 93.688l-9.27 9.246 9.27 9.246 9.269-9.246z"/><path stroke="#26A0F8" d="m752.293 93.69-9.27 9.246 9.27 9.246 9.269-9.246zM770.797 75.23l-9.27 9.246 9.27 9.246 9.269-9.246z"/><path stroke="#26A0F8" d="m752.289 75.23-9.269 9.246 9.269 9.246 9.269-9.246zM770.797 93.688l-9.27 9.246 9.27 9.246 9.269-9.246z"/><path stroke="#26A0F8" d="m752.289 93.688-9.269 9.246 9.269 9.246 9.269-9.246zM770.797 75.226l-9.27 9.246 9.27 9.246 9.269-9.246z"/><path stroke="#26A0F8" d="m752.289 75.226-9.269 9.246 9.269 9.246 9.269-9.246zM770.797 112.152l-9.27 9.246 9.27 9.246 9.269-9.246z"/><path stroke="#26A0F8" d="m752.283 112.152-9.269 9.246 9.269 9.246 9.269-9.246zM770.797 93.69l-9.27 9.246 9.27 9.246 9.269-9.246z"/><path stroke="#26A0F8" d="m752.289 93.69-9.269 9.246 9.269 9.246 9.269-9.246zM770.797 75.228l-9.27 9.246 9.27 9.246 9.269-9.246z"/><path stroke="#26A0F8" d="m752.289 75.228-9.269 9.246 9.269 9.246 9.269-9.246zM770.791 130.612l-9.27 9.246 9.27 9.246 9.269-9.246z"/><path stroke="#26A0F8" d="m752.283 130.612-9.269 9.246 9.269 9.246 9.269-9.246zM770.791 112.15l-9.27 9.246 9.27 9.246 9.269-9.246z"/><path stroke="#26A0F8" d="m752.283 112.15-9.269 9.246 9.269 9.246 9.269-9.246zM770.791 93.688l-9.27 9.246 9.27 9.246 9.269-9.246z"/><path stroke="#26A0F8" d="m752.291 93.688-9.27 9.246 9.27 9.246 9.269-9.246z"/></g><path fill="#03030F" stroke="#03030F" stroke-linejoin="round" d="M661.247 210.543h-8.714l-13.054 13.091 13.363 13.114h8.405L648.1 223.634z"/><path fill="#fff" stroke="#03030F" stroke-linejoin="round" d="M658.289 210.543h-7.234L638 223.634l13.363 13.114h6.926l-13.147-13.114z"/><path fill="#03030F" stroke="#03030F" stroke-linejoin="round" d="M699.343 210.543h8.713l13.055 13.091-13.363 13.114h-8.405l13.147-13.114z"/><path fill="#fff" stroke="#03030F" stroke-linejoin="round" d="M702.301 210.543h7.234l13.055 13.091-13.363 13.114h-6.926l13.147-13.114z"/><mask id="c" width="27" height="28" x="667" y="210" maskUnits="userSpaceOnUse" style="mask-type:alpha"><path fill="#D9D9D9" stroke="#03030F" stroke-linejoin="round" d="M692.911 210.542h-7.518l-17.512 26.206h7.526z"/></mask><g stroke="#03030F" mask="url(#c)"><path fill="#fff" d="m670.863 238.782-2.992-2.031 19.417-29.051 2.984 2.022z"/><path fill="#03030F" d="m669.561 245.672-2.459-1.661 27.22-40.844 2.46 1.662z"/></g><path stroke="#03030F" stroke-linejoin="round" d="M692.913 210.543h-7.518l-17.512 26.205h7.526z"/><path fill="#fff" stroke="#03030F" d="M641 259.542H468v108h173z"/><path fill="#fff" d="M519.265 275.79H483v36.174h36.265z"/><path fill="#fff" d="M555.265 275.79H519v36.174h36.265z"/><path stroke="#03030F" stroke-linejoin="round" d="M557.265 275.79H521v36.174h36.265z"/><path stroke="#03030F" stroke-linejoin="round" d="M521.265 275.79H485v36.174h36.265z"/><mask id="d" width="23" height="107" x="640" y="261" maskUnits="userSpaceOnUse" style="mask-type:alpha"><path fill="#3A3A82" stroke="#0A184C" stroke-linejoin="round" d="M662.409 262.108h-21.598v104.434h21.598z"/></mask><g mask="url(#d)"><path fill="#26A0F8" stroke="#03030F" stroke-linejoin="round" d="M662.409 262.108h-21.598v104.434h21.598z"/><path fill="#03030F" d="M662.979 310.207a.708.708 0 1 0 .002-1.416.708.708 0 0 0-.002 1.416M661.215 313.74a.71.71 0 1 0 .002-1.418.71.71 0 0 0-.002 1.418M662.979 317.271a.708.708 0 1 0 .002-1.416.708.708 0 0 0-.002 1.416"/><path fill="#03030F" d="M662.979 317.275a.708.708 0 1 0 .002-1.416.708.708 0 0 0-.002 1.416M661.215 320.808a.71.71 0 1 0 .002-1.418.71.71 0 0 0-.002 1.418M662.979 324.339a.708.708 0 1 0 .002-1.416.708.708 0 0 0-.002 1.416"/><path fill="#03030F" d="M662.979 324.337a.708.708 0 1 0 .002-1.416.708.708 0 0 0-.002 1.416M661.215 327.87a.71.71 0 1 0 .002-1.418.71.71 0 0 0-.002 1.418M662.979 331.413a.708.708 0 1 0 .002-1.416.708.708 0 0 0-.002 1.416"/><path fill="#03030F" d="M662.979 331.415a.708.708 0 1 0 .002-1.416.708.708 0 0 0-.002 1.416M661.215 334.948a.71.71 0 1 0 .002-1.418.71.71 0 0 0-.002 1.418M662.979 338.479a.708.708 0 1 0 .002-1.416.708.708 0 0 0-.002 1.416"/><path fill="#03030F" d="M662.979 338.479a.708.708 0 1 0 .002-1.416.708.708 0 0 0-.002 1.416M661.215 342.012a.71.71 0 1 0 .002-1.418.71.71 0 0 0-.002 1.418M662.979 345.543a.708.708 0 1 0 .002-1.416.708.708 0 0 0-.002 1.416"/><path fill="#03030F" d="M662.979 345.546a.708.708 0 1 0 .002-1.416.708.708 0 0 0-.002 1.416M661.215 349.078a.71.71 0 1 0 .002-1.418.71.71 0 0 0-.002 1.418M662.979 352.609a.708.708 0 1 0 .002-1.416.708.708 0 0 0-.002 1.416"/><path fill="#03030F" d="M662.979 352.611a.708.708 0 1 0 .002-1.416.708.708 0 0 0-.002 1.416M661.215 356.144a.71.71 0 1 0 .002-1.418.71.71 0 0 0-.002 1.418M662.979 359.687a.708.708 0 1 0 .002-1.416.708.708 0 0 0-.002 1.416"/><path fill="#03030F" d="M662.979 359.683a.708.708 0 1 0 .002-1.416.708.708 0 0 0-.002 1.416M661.215 363.216a.71.71 0 1 0 .001-1.419.71.71 0 0 0-.001 1.419M662.979 366.747a.708.708 0 1 0 .002-1.416.708.708 0 0 0-.002 1.416M659.45 310.207a.709.709 0 1 0 0-1.418.709.709 0 0 0 0 1.418M655.915 310.207a.709.709 0 1 0 0-1.418.709.709 0 0 0 0 1.418M661.221 313.74a.71.71 0 1 0 .002-1.418.71.71 0 0 0-.002 1.418M657.68 313.74a.71.71 0 1 0 .002-1.418.71.71 0 0 0-.002 1.418M654.137 313.74a.71.71 0 1 0 .002-1.418.71.71 0 0 0-.002 1.418M659.45 317.271a.709.709 0 1 0 0-1.418.709.709 0 0 0 0 1.418M655.915 317.271a.709.709 0 1 0 0-1.418.709.709 0 0 0 0 1.418"/><path fill="#03030F" d="M659.45 317.275a.709.709 0 1 0 0-1.418.709.709 0 0 0 0 1.418M655.915 317.275a.709.709 0 1 0 0-1.418.709.709 0 0 0 0 1.418M661.221 320.808a.71.71 0 1 0 .002-1.418.71.71 0 0 0-.002 1.418M657.68 320.808a.71.71 0 1 0 .002-1.418.71.71 0 0 0-.002 1.418M654.137 320.808a.71.71 0 1 0 .002-1.418.71.71 0 0 0-.002 1.418M659.45 324.339a.709.709 0 1 0 0-1.418.709.709 0 0 0 0 1.418M655.915 324.339a.709.709 0 1 0 0-1.418.709.709 0 0 0 0 1.418"/><path fill="#03030F" d="M659.45 324.337a.709.709 0 1 0 0-1.418.709.709 0 0 0 0 1.418M655.915 324.337a.709.709 0 1 0 0-1.418.709.709 0 0 0 0 1.418M661.221 327.87a.71.71 0 1 0 .002-1.418.71.71 0 0 0-.002 1.418M657.68 327.87a.71.71 0 1 0 .002-1.418.71.71 0 0 0-.002 1.418M654.137 327.87a.71.71 0 1 0 .002-1.418.71.71 0 0 0-.002 1.418M659.45 331.413a.709.709 0 1 0 0-1.418.709.709 0 0 0 0 1.418M655.915 331.413a.709.709 0 1 0 0-1.418.709.709 0 0 0 0 1.418"/><path fill="#03030F" d="M659.45 331.409a.709.709 0 1 0 0-1.418.709.709 0 0 0 0 1.418M655.915 331.409a.709.709 0 1 0 0-1.418.709.709 0 0 0 0 1.418M661.221 334.941a.71.71 0 1 0 .002-1.418.71.71 0 0 0-.002 1.418M657.68 334.941a.71.71 0 1 0 .002-1.418.71.71 0 0 0-.002 1.418M654.137 334.941a.71.71 0 1 0 .002-1.418.71.71 0 0 0-.002 1.418M659.45 338.473a.71.71 0 1 0 0-1.418.71.71 0 0 0 0 1.418M655.915 338.473a.71.71 0 1 0 0-1.418.71.71 0 0 0 0 1.418"/><path fill="#03030F" d="M659.45 338.479a.709.709 0 1 0 0-1.418.709.709 0 0 0 0 1.418M655.915 338.479a.709.709 0 1 0 0-1.418.709.709 0 0 0 0 1.418M661.221 342.012a.71.71 0 1 0 .002-1.418.71.71 0 0 0-.002 1.418M657.68 342.012a.71.71 0 1 0 .002-1.418.71.71 0 0 0-.002 1.418M654.137 342.012a.71.71 0 1 0 .002-1.418.71.71 0 0 0-.002 1.418M659.45 345.543a.709.709 0 1 0 0-1.418.709.709 0 0 0 0 1.418M655.915 345.543a.709.709 0 1 0 0-1.418.709.709 0 0 0 0 1.418"/><path fill="#03030F" d="M659.45 345.546a.709.709 0 1 0 0-1.418.709.709 0 0 0 0 1.418M655.915 345.546a.709.709 0 1 0 0-1.418.709.709 0 0 0 0 1.418M661.221 349.078a.71.71 0 1 0 .002-1.418.71.71 0 0 0-.002 1.418M657.68 349.078a.71.71 0 1 0 .002-1.418.71.71 0 0 0-.002 1.418M654.137 349.078a.71.71 0 1 0 .002-1.418.71.71 0 0 0-.002 1.418M659.45 352.609a.709.709 0 1 0 0-1.418.709.709 0 0 0 0 1.418M655.915 352.609a.709.709 0 1 0 0-1.418.709.709 0 0 0 0 1.418"/><path fill="#03030F" d="M659.45 352.611a.709.709 0 1 0 0-1.418.709.709 0 0 0 0 1.418M655.915 352.611a.709.709 0 1 0 0-1.418.709.709 0 0 0 0 1.418M661.221 356.144a.71.71 0 1 0 .002-1.418.71.71 0 0 0-.002 1.418M657.68 356.144a.71.71 0 1 0 .002-1.418.71.71 0 0 0-.002 1.418M654.137 356.144a.71.71 0 1 0 .002-1.418.71.71 0 0 0-.002 1.418M659.45 359.687a.709.709 0 1 0 0-1.418.709.709 0 0 0 0 1.418M655.915 359.687a.709.709 0 1 0 0-1.418.709.709 0 0 0 0 1.418"/><path fill="#03030F" d="M659.45 359.683a.709.709 0 1 0 0-1.418.709.709 0 0 0 0 1.418M655.915 359.683a.709.709 0 1 0 0-1.418.709.709 0 0 0 0 1.418M661.221 363.216a.71.71 0 1 0 .001-1.419.71.71 0 0 0-.001 1.419M657.68 363.216a.71.71 0 1 0 .002-1.418.71.71 0 0 0-.002 1.418M654.137 363.216a.71.71 0 1 0 .001-1.419.71.71 0 0 0-.001 1.419M659.45 366.747a.709.709 0 1 0 0-1.418.709.709 0 0 0 0 1.418M655.915 366.747a.709.709 0 1 0 0-1.418.709.709 0 0 0 0 1.418M652.368 310.207a.709.709 0 1 0 0-1.418.709.709 0 0 0 0 1.418M648.832 310.207a.71.71 0 1 0 .002-1.418.71.71 0 0 0-.002 1.418M654.139 313.74a.71.71 0 1 0 .002-1.418.71.71 0 0 0-.002 1.418M650.604 313.74a.708.708 0 1 0 .002-1.416.708.708 0 0 0-.002 1.416M647.061 313.74a.708.708 0 1 0 .002-1.416.708.708 0 0 0-.002 1.416M652.368 317.271a.709.709 0 1 0 0-1.418.709.709 0 0 0 0 1.418M648.832 317.271a.71.71 0 1 0 .002-1.418.71.71 0 0 0-.002 1.418"/><path fill="#03030F" d="M652.368 317.275a.709.709 0 1 0 0-1.418.709.709 0 0 0 0 1.418M648.832 317.275a.71.71 0 1 0 .002-1.418.71.71 0 0 0-.002 1.418M654.139 320.808a.71.71 0 1 0 .002-1.418.71.71 0 0 0-.002 1.418M650.604 320.808a.708.708 0 1 0 .002-1.416.708.708 0 0 0-.002 1.416M647.061 320.808a.708.708 0 1 0 .002-1.416.708.708 0 0 0-.002 1.416M652.368 324.339a.709.709 0 1 0 0-1.418.709.709 0 0 0 0 1.418M648.832 324.339a.71.71 0 1 0 .002-1.418.71.71 0 0 0-.002 1.418"/><path fill="#03030F" d="M652.368 324.337a.709.709 0 1 0 0-1.418.709.709 0 0 0 0 1.418M648.832 324.337a.71.71 0 1 0 .002-1.418.71.71 0 0 0-.002 1.418M654.139 327.87a.71.71 0 1 0 .002-1.418.71.71 0 0 0-.002 1.418M650.604 327.87a.708.708 0 1 0 .002-1.416.708.708 0 0 0-.002 1.416M647.061 327.87a.708.708 0 1 0 .002-1.416.708.708 0 0 0-.002 1.416M652.368 331.413a.709.709 0 1 0 0-1.418.709.709 0 0 0 0 1.418M648.832 331.413a.71.71 0 1 0 .002-1.418.71.71 0 0 0-.002 1.418"/><path fill="#03030F" d="M652.368 331.415a.709.709 0 1 0 0-1.418.709.709 0 0 0 0 1.418M648.832 331.415a.71.71 0 1 0 .002-1.418.71.71 0 0 0-.002 1.418M654.139 334.948a.71.71 0 1 0 .002-1.418.71.71 0 0 0-.002 1.418M650.604 334.948a.708.708 0 1 0 .002-1.416.708.708 0 0 0-.002 1.416M647.061 334.948a.708.708 0 1 0 .002-1.416.708.708 0 0 0-.002 1.416M652.368 338.479a.709.709 0 1 0 0-1.418.709.709 0 0 0 0 1.418M648.832 338.479a.71.71 0 1 0 .002-1.418.71.71 0 0 0-.002 1.418"/><path fill="#03030F" d="M652.368 338.479a.709.709 0 1 0 0-1.418.709.709 0 0 0 0 1.418M648.832 338.479a.71.71 0 1 0 .002-1.418.71.71 0 0 0-.002 1.418M654.139 342.012a.71.71 0 1 0 .002-1.418.71.71 0 0 0-.002 1.418M650.604 342.012a.708.708 0 1 0 .002-1.416.708.708 0 0 0-.002 1.416M647.061 342.012a.708.708 0 1 0 .002-1.416.708.708 0 0 0-.002 1.416M652.368 345.543a.709.709 0 1 0 0-1.418.709.709 0 0 0 0 1.418M648.832 345.543a.71.71 0 1 0 .002-1.418.71.71 0 0 0-.002 1.418"/><path fill="#03030F" d="M652.368 345.546a.709.709 0 1 0 0-1.418.709.709 0 0 0 0 1.418M648.832 345.546a.71.71 0 1 0 .002-1.418.71.71 0 0 0-.002 1.418M654.139 349.078a.71.71 0 1 0 .002-1.418.71.71 0 0 0-.002 1.418M650.604 349.078a.708.708 0 1 0 .002-1.416.708.708 0 0 0-.002 1.416M647.061 349.078a.708.708 0 1 0 .002-1.416.708.708 0 0 0-.002 1.416M652.368 352.609a.709.709 0 1 0 0-1.418.709.709 0 0 0 0 1.418M648.832 352.609a.71.71 0 1 0 .002-1.418.71.71 0 0 0-.002 1.418"/><path fill="#03030F" d="M652.368 352.611a.709.709 0 1 0 0-1.418.709.709 0 0 0 0 1.418M648.832 352.611a.71.71 0 1 0 .002-1.418.71.71 0 0 0-.002 1.418M654.139 356.144a.71.71 0 1 0 .002-1.418.71.71 0 0 0-.002 1.418M650.604 356.144a.708.708 0 1 0 .002-1.416.708.708 0 0 0-.002 1.416M647.061 356.144a.708.708 0 1 0 .002-1.416.708.708 0 0 0-.002 1.416M652.368 359.687a.709.709 0 1 0 0-1.418.709.709 0 0 0 0 1.418M648.832 359.687a.71.71 0 1 0 .002-1.418.71.71 0 0 0-.002 1.418"/><path fill="#03030F" d="M652.368 359.683a.709.709 0 1 0 0-1.418.709.709 0 0 0 0 1.418M648.832 359.683a.71.71 0 1 0 .002-1.418.71.71 0 0 0-.002 1.418M654.139 363.216a.71.71 0 1 0 .002-1.418.71.71 0 0 0-.002 1.418M650.604 363.216a.708.708 0 1 0 .002-1.416.708.708 0 0 0-.002 1.416M647.061 363.216a.708.708 0 1 0 .001-1.417.708.708 0 0 0-.001 1.417M652.368 366.747a.709.709 0 1 0 0-1.418.709.709 0 0 0 0 1.418M648.832 366.747a.71.71 0 1 0 .002-1.418.71.71 0 0 0-.002 1.418M645.286 310.207a.709.709 0 1 0 0-1.418.709.709 0 0 0 0 1.418M641.737 310.207a.708.708 0 1 0 0-1.416.71.71 0 1 0 0 1.416M647.051 313.74a.71.71 0 1 0 .002-1.418.71.71 0 0 0-.002 1.418M643.516 313.74a.708.708 0 1 0 .002-1.416.708.708 0 0 0-.002 1.416M639.973 313.74a.708.708 0 1 0 .002-1.416.708.708 0 0 0-.002 1.416M645.286 317.271a.709.709 0 1 0 0-1.418.709.709 0 0 0 0 1.418M641.737 317.271a.708.708 0 1 0 0-1.416.71.71 0 1 0 0 1.416"/><path fill="#03030F" d="M645.286 317.275a.709.709 0 1 0 0-1.418.709.709 0 0 0 0 1.418M641.737 317.275a.708.708 0 1 0 0-1.416.71.71 0 1 0 0 1.416M647.051 320.808a.71.71 0 1 0 .002-1.418.71.71 0 0 0-.002 1.418M643.516 320.808a.708.708 0 1 0 .002-1.416.708.708 0 0 0-.002 1.416M639.973 320.808a.708.708 0 1 0 .002-1.416.708.708 0 0 0-.002 1.416M645.286 324.339a.709.709 0 1 0 0-1.418.709.709 0 0 0 0 1.418M641.737 324.339a.708.708 0 1 0 0-1.416.71.71 0 1 0 0 1.416"/><path fill="#03030F" d="M645.286 324.337a.709.709 0 1 0 0-1.418.709.709 0 0 0 0 1.418M641.737 324.337a.708.708 0 1 0 0-1.416.71.71 0 1 0 0 1.416M647.051 327.87a.71.71 0 1 0 .002-1.418.71.71 0 0 0-.002 1.418M643.516 327.87a.708.708 0 1 0 .002-1.416.708.708 0 0 0-.002 1.416M639.973 327.87a.708.708 0 1 0 .002-1.416.708.708 0 0 0-.002 1.416M645.286 331.413a.709.709 0 1 0 0-1.418.709.709 0 0 0 0 1.418M641.737 331.413a.708.708 0 1 0 0-1.416.71.71 0 1 0 0 1.416"/><path fill="#03030F" d="M645.286 331.409a.709.709 0 1 0 0-1.418.709.709 0 0 0 0 1.418M641.737 331.409a.708.708 0 1 0 0-1.416.71.71 0 1 0 0 1.416M647.051 334.941a.71.71 0 1 0 .002-1.418.71.71 0 0 0-.002 1.418M643.516 334.941a.708.708 0 1 0 .002-1.416.708.708 0 0 0-.002 1.416M639.973 334.941a.708.708 0 1 0 .002-1.416.708.708 0 0 0-.002 1.416M645.286 338.473a.71.71 0 1 0 0-1.418.71.71 0 0 0 0 1.418M641.737 338.473a.708.708 0 1 0 .001-1.417.708.708 0 0 0-.001 1.417"/><path fill="#03030F" d="M645.286 338.479a.709.709 0 1 0 0-1.418.709.709 0 0 0 0 1.418M641.737 338.479a.708.708 0 1 0 0-1.416.71.71 0 1 0 0 1.416M647.051 342.012a.71.71 0 1 0 .002-1.418.71.71 0 0 0-.002 1.418M643.516 342.012a.708.708 0 1 0 .002-1.416.708.708 0 0 0-.002 1.416M639.973 342.012a.708.708 0 1 0 .002-1.416.708.708 0 0 0-.002 1.416M645.286 345.543a.709.709 0 1 0 0-1.418.709.709 0 0 0 0 1.418M641.737 345.543a.708.708 0 1 0 0-1.416.71.71 0 1 0 0 1.416"/><path fill="#03030F" d="M645.286 345.546a.709.709 0 1 0 0-1.418.709.709 0 0 0 0 1.418M641.737 345.546a.708.708 0 1 0 0-1.417.71.71 0 1 0 0 1.417M647.051 349.078a.71.71 0 1 0 .002-1.418.71.71 0 0 0-.002 1.418M643.516 349.078a.708.708 0 1 0 .002-1.416.708.708 0 0 0-.002 1.416M639.973 349.078a.708.708 0 1 0 .002-1.416.708.708 0 0 0-.002 1.416M645.286 352.609a.709.709 0 1 0 0-1.418.709.709 0 0 0 0 1.418M641.737 352.609a.708.708 0 1 0 0-1.416.71.71 0 1 0 0 1.416"/><path fill="#03030F" d="M645.286 352.611a.709.709 0 1 0 0-1.418.709.709 0 0 0 0 1.418M641.737 352.611a.708.708 0 1 0 0-1.416.71.71 0 1 0 0 1.416M647.051 356.144a.71.71 0 1 0 .002-1.418.71.71 0 0 0-.002 1.418M643.516 356.144a.708.708 0 1 0 .002-1.416.708.708 0 0 0-.002 1.416M639.973 356.144a.708.708 0 1 0 .002-1.416.708.708 0 0 0-.002 1.416M645.286 359.687a.709.709 0 1 0 0-1.418.709.709 0 0 0 0 1.418M641.737 359.687a.708.708 0 1 0 0-1.417.71.71 0 1 0 0 1.417"/><path fill="#03030F" d="M645.286 359.683a.709.709 0 1 0 0-1.418.709.709 0 0 0 0 1.418M641.737 359.683a.708.708 0 1 0 0-1.416.71.71 0 1 0 0 1.416M647.051 363.216a.71.71 0 1 0 .002-1.418.71.71 0 0 0-.002 1.418M643.516 363.216a.708.708 0 1 0 .002-1.416.708.708 0 0 0-.002 1.416M639.973 363.216a.708.708 0 1 0 .001-1.417.708.708 0 0 0-.001 1.417M645.286 366.747a.709.709 0 1 0 0-1.418.709.709 0 0 0 0 1.418M641.737 366.747a.708.708 0 1 0 0-1.416.71.71 0 1 0 0 1.416M639.985 313.74a.708.708 0 1 0 0-1.416.71.71 0 1 0 0 1.416M639.985 320.808a.708.708 0 1 0 0-1.416.71.71 0 1 0 0 1.416M639.985 327.87a.708.708 0 1 0 0-1.416.71.71 0 1 0 0 1.416M639.985 334.948a.708.708 0 1 0 0-1.416.71.71 0 1 0 0 1.416M639.985 342.012a.708.708 0 1 0 0-1.416.71.71 0 1 0 0 1.416M639.985 349.078a.708.708 0 1 0 0-1.416.71.71 0 1 0 0 1.416M639.985 356.144a.708.708 0 1 0 0-1.416.71.71 0 1 0 0 1.416"/><path fill="#03030F" d="M639.985 363.216a.708.708 0 1 0 0-1.417.71.71 0 1 0 0 1.417M661.215 264.156a.71.71 0 1 0 .002-1.418.71.71 0 0 0-.002 1.418M662.979 267.687a.708.708 0 1 0 .002-1.416.708.708 0 0 0-.002 1.416"/><path fill="#03030F" d="M662.979 267.69a.708.708 0 1 0 .002-1.416.708.708 0 0 0-.002 1.416M661.215 271.223a.71.71 0 1 0 .001-1.419.71.71 0 0 0-.001 1.419M662.979 274.754a.708.708 0 1 0 .002-1.416.708.708 0 0 0-.002 1.416"/><path fill="#03030F" d="M662.979 274.753a.708.708 0 1 0 .002-1.416.708.708 0 0 0-.002 1.416M661.215 278.286a.71.71 0 1 0 .002-1.418.71.71 0 0 0-.002 1.418M662.979 281.829a.708.708 0 1 0 .002-1.416.708.708 0 0 0-.002 1.416"/><path fill="#03030F" d="M662.979 281.829a.708.708 0 1 0 .002-1.416.708.708 0 0 0-.002 1.416M661.215 285.362a.71.71 0 1 0 .002-1.418.71.71 0 0 0-.002 1.418M662.979 288.893a.708.708 0 1 0 .002-1.416.708.708 0 0 0-.002 1.416"/><path fill="#03030F" d="M662.979 288.894a.708.708 0 1 0 .002-1.416.708.708 0 0 0-.002 1.416M661.215 292.426a.71.71 0 1 0 .002-1.418.71.71 0 0 0-.002 1.418M662.979 295.958a.708.708 0 1 0 .001-1.417.708.708 0 0 0-.001 1.417"/><path fill="#03030F" d="M662.979 295.959a.708.708 0 1 0 .002-1.416.708.708 0 0 0-.002 1.416M661.215 299.492a.71.71 0 1 0 .002-1.418.71.71 0 0 0-.002 1.418M662.979 303.023a.708.708 0 1 0 .002-1.416.708.708 0 0 0-.002 1.416"/><path fill="#03030F" d="M662.979 303.025a.708.708 0 1 0 .002-1.416.708.708 0 0 0-.002 1.416M661.215 306.558a.71.71 0 1 0 .002-1.418.71.71 0 0 0-.002 1.418M662.979 310.101a.708.708 0 1 0 .002-1.416.708.708 0 0 0-.002 1.416"/><path fill="#03030F" d="M662.979 310.098a.708.708 0 1 0 .001-1.417.708.708 0 0 0-.001 1.417M661.215 313.63a.71.71 0 1 0 .002-1.418.71.71 0 0 0-.002 1.418M662.979 317.161a.708.708 0 1 0 .002-1.416.708.708 0 0 0-.002 1.416M661.221 264.156a.71.71 0 1 0 .002-1.418.71.71 0 0 0-.002 1.418M657.68 264.156a.71.71 0 1 0 .002-1.418.71.71 0 0 0-.002 1.418M654.137 264.156a.71.71 0 1 0 .002-1.418.71.71 0 0 0-.002 1.418M659.45 267.687a.709.709 0 1 0 0-1.418.709.709 0 0 0 0 1.418M655.915 267.687a.709.709 0 1 0 0-1.418.709.709 0 0 0 0 1.418"/><path fill="#03030F" d="M659.45 267.69a.709.709 0 1 0 0-1.418.709.709 0 0 0 0 1.418M655.915 267.69a.709.709 0 1 0 0-1.418.709.709 0 0 0 0 1.418M661.221 271.223a.71.71 0 1 0 .001-1.419.71.71 0 0 0-.001 1.419M657.68 271.223a.71.71 0 1 0 .001-1.419.71.71 0 0 0-.001 1.419M654.137 271.223a.71.71 0 1 0 .001-1.419.71.71 0 0 0-.001 1.419M659.45 274.754a.709.709 0 1 0 0-1.418.709.709 0 0 0 0 1.418M655.915 274.754a.709.709 0 1 0 0-1.418.709.709 0 0 0 0 1.418"/><path fill="#03030F" d="M659.45 274.753a.709.709 0 1 0 0-1.418.709.709 0 0 0 0 1.418M655.915 274.753a.709.709 0 1 0 0-1.418.709.709 0 0 0 0 1.418M661.221 278.286a.71.71 0 1 0 .002-1.418.71.71 0 0 0-.002 1.418M657.68 278.286a.71.71 0 1 0 .002-1.418.71.71 0 0 0-.002 1.418M654.137 278.286a.71.71 0 1 0 .002-1.418.71.71 0 0 0-.002 1.418M659.45 281.829a.709.709 0 1 0 0-1.418.709.709 0 0 0 0 1.418M655.915 281.829a.709.709 0 1 0 0-1.418.709.709 0 0 0 0 1.418"/><path fill="#03030F" d="M659.45 281.826a.709.709 0 1 0 0-1.418.709.709 0 0 0 0 1.418M655.915 281.826a.709.709 0 1 0 0-1.418.709.709 0 0 0 0 1.418M661.221 285.358a.71.71 0 1 0 .002-1.418.71.71 0 0 0-.002 1.418M657.68 285.358a.71.71 0 1 0 .002-1.418.71.71 0 0 0-.002 1.418M654.137 285.358a.71.71 0 1 0 .002-1.418.71.71 0 0 0-.002 1.418M659.45 288.89a.709.709 0 1 0 0-1.418.709.709 0 0 0 0 1.418M655.915 288.89a.709.709 0 1 0 0-1.418.709.709 0 0 0 0 1.418"/><path fill="#03030F" d="M659.45 288.894a.709.709 0 1 0 0-1.418.709.709 0 0 0 0 1.418M655.915 288.894a.709.709 0 1 0 0-1.418.709.709 0 0 0 0 1.418M661.221 292.426a.71.71 0 1 0 .002-1.418.71.71 0 0 0-.002 1.418M657.68 292.426a.71.71 0 1 0 .002-1.418.71.71 0 0 0-.002 1.418M654.137 292.426a.71.71 0 1 0 .002-1.418.71.71 0 0 0-.002 1.418M659.45 295.958a.71.71 0 1 0 0-1.418.71.71 0 0 0 0 1.418M655.915 295.958a.71.71 0 1 0 0-1.418.71.71 0 0 0 0 1.418"/><path fill="#03030F" d="M659.45 295.959a.709.709 0 1 0 0-1.418.709.709 0 0 0 0 1.418M655.915 295.959a.709.709 0 1 0 0-1.418.709.709 0 0 0 0 1.418M661.221 299.492a.71.71 0 1 0 .002-1.418.71.71 0 0 0-.002 1.418M657.68 299.492a.71.71 0 1 0 .002-1.418.71.71 0 0 0-.002 1.418M654.137 299.492a.71.71 0 1 0 .002-1.418.71.71 0 0 0-.002 1.418M659.45 303.023a.709.709 0 1 0 0-1.418.709.709 0 0 0 0 1.418M655.915 303.023a.709.709 0 1 0 0-1.418.709.709 0 0 0 0 1.418"/><path fill="#03030F" d="M659.45 303.025a.709.709 0 1 0 0-1.418.709.709 0 0 0 0 1.418M655.915 303.025a.709.709 0 1 0 0-1.418.709.709 0 0 0 0 1.418M661.221 306.558a.71.71 0 1 0 .002-1.418.71.71 0 0 0-.002 1.418M657.68 306.558a.71.71 0 1 0 .002-1.418.71.71 0 0 0-.002 1.418M654.137 306.558a.71.71 0 1 0 .002-1.418.71.71 0 0 0-.002 1.418M659.45 310.101a.709.709 0 1 0 0-1.418.709.709 0 0 0 0 1.418M655.915 310.101a.709.709 0 1 0 0-1.418.709.709 0 0 0 0 1.418"/><path fill="#03030F" d="M659.45 310.098a.71.71 0 1 0 0-1.418.71.71 0 0 0 0 1.418M655.915 310.098a.71.71 0 1 0 0-1.418.71.71 0 0 0 0 1.418M661.221 313.63a.71.71 0 1 0 .002-1.418.71.71 0 0 0-.002 1.418M657.68 313.63a.71.71 0 1 0 .002-1.418.71.71 0 0 0-.002 1.418M654.137 313.63a.71.71 0 1 0 .002-1.418.71.71 0 0 0-.002 1.418M659.45 317.161a.709.709 0 1 0 0-1.418.709.709 0 0 0 0 1.418M655.915 317.161a.709.709 0 1 0 0-1.418.709.709 0 0 0 0 1.418M654.139 264.156a.71.71 0 1 0 .002-1.418.71.71 0 0 0-.002 1.418M650.604 264.156a.708.708 0 1 0 .002-1.416.708.708 0 0 0-.002 1.416M647.061 264.156a.708.708 0 1 0 .002-1.416.708.708 0 0 0-.002 1.416M652.368 267.687a.709.709 0 1 0 0-1.418.709.709 0 0 0 0 1.418M648.832 267.687a.71.71 0 1 0 .002-1.418.71.71 0 0 0-.002 1.418"/><path fill="#03030F" d="M652.368 267.69a.709.709 0 1 0 0-1.418.709.709 0 0 0 0 1.418M648.832 267.69a.71.71 0 1 0 .002-1.418.71.71 0 0 0-.002 1.418M654.139 271.223a.71.71 0 1 0 .001-1.419.71.71 0 0 0-.001 1.419M650.604 271.223a.708.708 0 1 0 .001-1.417.708.708 0 0 0-.001 1.417M647.061 271.223a.708.708 0 1 0 .001-1.417.708.708 0 0 0-.001 1.417M652.368 274.754a.709.709 0 1 0 0-1.418.709.709 0 0 0 0 1.418M648.832 274.754a.71.71 0 1 0 .002-1.418.71.71 0 0 0-.002 1.418"/><path fill="#03030F" d="M652.368 274.753a.709.709 0 1 0 0-1.418.709.709 0 0 0 0 1.418M648.832 274.753a.71.71 0 1 0 .002-1.418.71.71 0 0 0-.002 1.418M654.139 278.286a.71.71 0 1 0 .002-1.418.71.71 0 0 0-.002 1.418M650.604 278.286a.708.708 0 1 0 .002-1.416.708.708 0 0 0-.002 1.416M647.061 278.286a.708.708 0 1 0 .002-1.416.708.708 0 0 0-.002 1.416M652.368 281.829a.709.709 0 1 0 0-1.418.709.709 0 0 0 0 1.418M648.832 281.829a.71.71 0 1 0 .002-1.418.71.71 0 0 0-.002 1.418"/><path fill="#03030F" d="M652.368 281.829a.709.709 0 1 0 0-1.418.709.709 0 0 0 0 1.418M648.832 281.829a.71.71 0 1 0 .002-1.418.71.71 0 0 0-.002 1.418M654.139 285.362a.71.71 0 1 0 .002-1.418.71.71 0 0 0-.002 1.418M650.604 285.362a.708.708 0 1 0 .002-1.416.708.708 0 0 0-.002 1.416M647.061 285.362a.708.708 0 1 0 .002-1.416.708.708 0 0 0-.002 1.416M652.368 288.893a.709.709 0 1 0 0-1.418.709.709 0 0 0 0 1.418M648.832 288.893a.71.71 0 1 0 .002-1.418.71.71 0 0 0-.002 1.418"/><path fill="#03030F" d="M652.368 288.894a.709.709 0 1 0 0-1.418.709.709 0 0 0 0 1.418M648.832 288.894a.71.71 0 1 0 .002-1.418.71.71 0 0 0-.002 1.418M654.139 292.426a.71.71 0 1 0 .002-1.418.71.71 0 0 0-.002 1.418M650.604 292.426a.708.708 0 1 0 .002-1.416.708.708 0 0 0-.002 1.416M647.061 292.426a.708.708 0 1 0 .002-1.416.708.708 0 0 0-.002 1.416M652.368 295.957a.709.709 0 1 0 0-1.418.709.709 0 0 0 0 1.418M648.832 295.958a.71.71 0 1 0 .001-1.419.71.71 0 0 0-.001 1.419"/><path fill="#03030F" d="M652.368 295.959a.709.709 0 1 0 0-1.418.709.709 0 0 0 0 1.418M648.832 295.959a.71.71 0 1 0 .002-1.418.71.71 0 0 0-.002 1.418M654.139 299.492a.71.71 0 1 0 .002-1.418.71.71 0 0 0-.002 1.418M650.604 299.492a.708.708 0 1 0 .002-1.416.708.708 0 0 0-.002 1.416M647.061 299.492a.708.708 0 1 0 .002-1.416.708.708 0 0 0-.002 1.416M652.368 303.023a.709.709 0 1 0 0-1.418.709.709 0 0 0 0 1.418M648.832 303.023a.71.71 0 1 0 .002-1.418.71.71 0 0 0-.002 1.418"/><path fill="#03030F" d="M652.368 303.025a.709.709 0 1 0 0-1.418.709.709 0 0 0 0 1.418M648.832 303.025a.71.71 0 1 0 .002-1.418.71.71 0 0 0-.002 1.418M654.139 306.558a.71.71 0 1 0 .002-1.418.71.71 0 0 0-.002 1.418M650.604 306.558a.708.708 0 1 0 .002-1.416.708.708 0 0 0-.002 1.416M647.061 306.558a.708.708 0 1 0 .002-1.416.708.708 0 0 0-.002 1.416M652.368 310.101a.709.709 0 1 0 0-1.418.709.709 0 0 0 0 1.418M648.832 310.101a.71.71 0 1 0 .002-1.418.71.71 0 0 0-.002 1.418"/><path fill="#03030F" d="M652.368 310.098a.71.71 0 1 0 0-1.418.71.71 0 0 0 0 1.418M648.832 310.098a.71.71 0 1 0 .001-1.419.71.71 0 0 0-.001 1.419M654.139 313.63a.71.71 0 1 0 .002-1.418.71.71 0 0 0-.002 1.418M650.604 313.63a.708.708 0 1 0 .002-1.416.708.708 0 0 0-.002 1.416M647.061 313.63a.708.708 0 1 0 .002-1.416.708.708 0 0 0-.002 1.416M652.368 317.161a.709.709 0 1 0 0-1.418.709.709 0 0 0 0 1.418M648.832 317.161a.71.71 0 1 0 .002-1.418.71.71 0 0 0-.002 1.418M647.051 264.156a.71.71 0 1 0 .002-1.418.71.71 0 0 0-.002 1.418M643.516 264.156a.708.708 0 1 0 .002-1.416.708.708 0 0 0-.002 1.416M639.973 264.156a.708.708 0 1 0 .002-1.416.708.708 0 0 0-.002 1.416M645.286 267.687a.709.709 0 1 0 0-1.418.709.709 0 0 0 0 1.418M641.737 267.687a.708.708 0 1 0 0-1.416.71.71 0 1 0 0 1.416"/><path fill="#03030F" d="M645.286 267.69a.709.709 0 1 0 0-1.418.709.709 0 0 0 0 1.418M641.737 267.69a.708.708 0 1 0 0-1.416.71.71 0 1 0 0 1.416M647.051 271.223a.71.71 0 1 0 .001-1.419.71.71 0 0 0-.001 1.419M643.516 271.223a.708.708 0 1 0 .001-1.417.708.708 0 0 0-.001 1.417M639.973 271.223a.708.708 0 1 0 .001-1.417.708.708 0 0 0-.001 1.417M645.286 274.754a.709.709 0 1 0 0-1.418.709.709 0 0 0 0 1.418M641.737 274.754a.708.708 0 1 0 0-1.417.71.71 0 1 0 0 1.417"/><path fill="#03030F" d="M645.286 274.753a.709.709 0 1 0 0-1.418.709.709 0 0 0 0 1.418M641.737 274.753a.708.708 0 1 0 0-1.416.71.71 0 1 0 0 1.416M647.051 278.286a.71.71 0 1 0 .002-1.418.71.71 0 0 0-.002 1.418M643.516 278.286a.708.708 0 1 0 .002-1.416.708.708 0 0 0-.002 1.416M639.973 278.286a.708.708 0 1 0 .002-1.416.708.708 0 0 0-.002 1.416M645.286 281.829a.709.709 0 1 0 0-1.418.709.709 0 0 0 0 1.418M641.737 281.829a.708.708 0 1 0 0-1.416.71.71 0 1 0 0 1.416"/><path fill="#03030F" d="M645.286 281.826a.709.709 0 1 0 0-1.418.709.709 0 0 0 0 1.418M641.737 281.826a.708.708 0 1 0 0-1.416.71.71 0 1 0 0 1.416M647.051 285.358a.71.71 0 1 0 .002-1.418.71.71 0 0 0-.002 1.418M643.516 285.358a.708.708 0 1 0 .002-1.416.708.708 0 0 0-.002 1.416M639.973 285.358a.708.708 0 1 0 .002-1.416.708.708 0 0 0-.002 1.416M645.286 288.89a.709.709 0 1 0 0-1.418.709.709 0 0 0 0 1.418M641.737 288.89a.708.708 0 1 0 0-1.417.71.71 0 1 0 0 1.417"/><path fill="#03030F" d="M645.286 288.894a.709.709 0 1 0 0-1.418.709.709 0 0 0 0 1.418M641.737 288.894a.708.708 0 1 0 0-1.417.71.71 0 1 0 0 1.417M647.051 292.426a.71.71 0 1 0 .002-1.418.71.71 0 0 0-.002 1.418M643.516 292.426a.708.708 0 1 0 .002-1.416.708.708 0 0 0-.002 1.416M639.973 292.426a.708.708 0 1 0 .002-1.416.708.708 0 0 0-.002 1.416M645.286 295.958a.71.71 0 1 0 0-1.418.71.71 0 0 0 0 1.418M641.737 295.958a.708.708 0 1 0 .001-1.417.708.708 0 0 0-.001 1.417"/><path fill="#03030F" d="M645.286 295.959a.709.709 0 1 0 0-1.418.709.709 0 0 0 0 1.418M641.737 295.959a.708.708 0 1 0 0-1.416.71.71 0 1 0 0 1.416M647.051 299.492a.71.71 0 1 0 .002-1.418.71.71 0 0 0-.002 1.418M643.516 299.492a.708.708 0 1 0 .002-1.416.708.708 0 0 0-.002 1.416M639.973 299.492a.708.708 0 1 0 .002-1.416.708.708 0 0 0-.002 1.416M645.286 303.023a.709.709 0 1 0 0-1.418.709.709 0 0 0 0 1.418M641.737 303.023a.708.708 0 1 0 0-1.416.71.71 0 1 0 0 1.416"/><path fill="#03030F" d="M645.286 303.025a.709.709 0 1 0 0-1.418.709.709 0 0 0 0 1.418M641.737 303.025a.708.708 0 1 0 0-1.416.71.71 0 1 0 0 1.416M647.051 306.558a.71.71 0 1 0 .002-1.418.71.71 0 0 0-.002 1.418M643.516 306.558a.708.708 0 1 0 .002-1.416.708.708 0 0 0-.002 1.416M639.973 306.558a.708.708 0 1 0 .002-1.416.708.708 0 0 0-.002 1.416M645.286 310.101a.709.709 0 1 0 0-1.418.709.709 0 0 0 0 1.418M641.737 310.101a.708.708 0 1 0 0-1.417.71.71 0 1 0 0 1.417"/><path fill="#03030F" d="M645.286 310.098a.71.71 0 1 0 0-1.418.71.71 0 0 0 0 1.418M641.737 310.098a.708.708 0 1 0 .001-1.417.708.708 0 0 0-.001 1.417M647.051 313.63a.71.71 0 1 0 .002-1.418.71.71 0 0 0-.002 1.418M643.516 313.63a.708.708 0 1 0 .002-1.416.708.708 0 0 0-.002 1.416M639.973 313.63a.708.708 0 1 0 .002-1.416.708.708 0 0 0-.002 1.416M645.286 317.161a.709.709 0 1 0 0-1.418.709.709 0 0 0 0 1.418M641.737 317.161a.708.708 0 1 0 0-1.416.71.71 0 1 0 0 1.416M639.985 264.156a.708.708 0 1 0 0-1.416.71.71 0 1 0 0 1.416M639.985 271.223a.708.708 0 1 0 .001-1.417.708.708 0 0 0-.001 1.417M639.985 278.286a.708.708 0 1 0 0-1.416.71.71 0 1 0 0 1.416M639.985 285.362a.708.708 0 1 0 0-1.416.71.71 0 1 0 0 1.416M639.985 292.426a.708.708 0 1 0 0-1.416.71.71 0 1 0 0 1.416M639.985 299.492a.708.708 0 1 0 0-1.416.71.71 0 1 0 0 1.416M639.985 306.558a.708.708 0 1 0 0-1.416.71.71 0 1 0 0 1.416"/><path fill="#03030F" d="M639.985 313.63a.708.708 0 1 0 0-1.416.71.71 0 1 0 0 1.416"/></g><path fill="#D4ECFE" d="M485 275.542v35.829h35.903z"/><path fill="#03030F" d="M488.94 275.79H485v36.174h3.94z"/><path fill="#D4ECFE" d="M519 275.79v35.828h35.903z"/><path fill="#03030F" d="M522.788 275.79h-3.94v36.174h3.94z"/><path fill="#D4ECFE" d="M555 275.79v35.828h35.895z"/><path stroke="#03030F" stroke-linejoin="round" d="M593.265 275.79H557v36.174h36.265z"/><path stroke="#03030F" stroke-linejoin="round" d="M627.265 275.79H591v36.174h36.265z"/><path fill="#D4ECFE" d="M590 275.79v35.828h35.895z"/><path fill="#03030F" d="M593.94 275.79H590v36.174h3.94zM558.94 275.79H555v36.174h3.94z"/><path fill="#26A0F8" stroke="#03030F" stroke-linejoin="round" d="M681.41 259.544H453v2.566h228.41z"/><path fill="#03030F" d="M547.176 367.085c-.821-3.427-4.942-6.178-9.909-6.178-2.023 0-3.999.441-5.67 1.265-1.672.825-2.961 1.995-3.7 3.358 0-.19.026-.372.026-.576.019-2.739-1.44-5.376-4.067-7.348-2.626-1.973-6.214-3.126-9.998-3.214s-7.466.896-10.262 2.742-4.487 4.41-4.711 7.144c-.699-1.753-2.137-3.305-4.113-4.439s-4.394-1.793-6.913-1.885-5.015.388-7.139 1.372-3.771 2.423-4.711 4.117c-.198-2.904-1.915-5.646-4.802-7.669-2.886-2.024-6.727-3.178-10.746-3.23-4.018-.052-7.914 1.003-10.899 2.95s-4.835 4.643-5.177 7.541c-.896-2.257-2.889-4.203-5.612-5.48s-5.992-1.799-9.205-1.47-6.153 1.487-8.279 3.261-3.294 4.044-3.289 6.392q.003.603.108 1.202"/><path stroke="#03030F" stroke-miterlimit="10" d="M547.176 367.085c-.821-3.427-4.942-6.178-9.909-6.178-2.023 0-3.999.441-5.67 1.265-1.672.825-2.961 1.995-3.7 3.358 0-.19.026-.372.026-.576.019-2.739-1.44-5.376-4.067-7.348-2.626-1.973-6.214-3.126-9.998-3.214s-7.466.896-10.262 2.742-4.487 4.41-4.711 7.144c-.699-1.753-2.137-3.305-4.113-4.439s-4.394-1.793-6.913-1.885-5.015.388-7.139 1.372-3.771 2.423-4.711 4.117c-.198-2.904-1.915-5.646-4.802-7.669-2.886-2.024-6.727-3.178-10.746-3.23-4.018-.052-7.914 1.003-10.899 2.95s-4.835 4.643-5.177 7.541c-.896-2.257-2.889-4.203-5.612-5.48s-5.992-1.799-9.205-1.47-6.153 1.487-8.279 3.261-3.294 4.044-3.289 6.392q.003.603.108 1.202"/><path fill="url(#e)" stroke="#03030F" stroke-miterlimit="10" d="M906.275 309.553c3.71 0 7.268 1.476 9.892 4.103a14.04 14.04 0 0 1 4.103 9.908v42.978h-28v-42.978a14.05 14.05 0 0 1 4.099-9.915 13.97 13.97 0 0 1 9.895-4.107z"/><path fill="url(#f)" d="M666.474 118.542c1.278 0 2.504.507 3.408 1.408a4.8 4.8 0 0 1 1.411 3.4v27.167h-9.647V123.35a4.8 4.8 0 0 1 1.415-3.402 4.834 4.834 0 0 1 3.413-1.406"/><path fill="#0A223E" d="M661.646 150.556V123.35a4.8 4.8 0 0 1 1.415-3.402 4.834 4.834 0 0 1 3.413-1.406s-2.761.946-2.761 4.792v27.222z"/><path stroke="#0A223E" stroke-miterlimit="10" d="M666.474 118.542c1.278 0 2.504.507 3.408 1.408a4.8 4.8 0 0 1 1.411 3.4v27.167h-9.647V123.35a4.8 4.8 0 0 1 1.415-3.402 4.834 4.834 0 0 1 3.413-1.406Z"/><path fill="url(#g)" d="M642.827 118.542c1.278 0 2.504.507 3.408 1.408a4.8 4.8 0 0 1 1.412 3.4v27.167H638V123.35a4.8 4.8 0 0 1 1.414-3.402 4.82 4.82 0 0 1 3.413-1.406"/><path fill="#0A223E" d="M638 150.556V123.35a4.8 4.8 0 0 1 1.414-3.402 4.82 4.82 0 0 1 3.413-1.406s-2.76.946-2.76 4.792v27.222z"/><path stroke="#0A223E" stroke-miterlimit="10" d="M642.827 118.542c1.278 0 2.504.507 3.408 1.408a4.8 4.8 0 0 1 1.412 3.4v27.167H638V123.35a4.8 4.8 0 0 1 1.414-3.402 4.82 4.82 0 0 1 3.413-1.406Z"/><path fill="url(#h)" d="M690.12 118.542c1.278 0 2.504.507 3.408 1.408a4.8 4.8 0 0 1 1.412 3.4v27.167h-9.647V123.35a4.8 4.8 0 0 1 1.414-3.402 4.82 4.82 0 0 1 3.413-1.406"/><path fill="#0A223E" d="M685.293 150.556V123.35a4.8 4.8 0 0 1 1.414-3.402 4.82 4.82 0 0 1 3.413-1.406s-2.76.946-2.76 4.792v27.222z"/><path stroke="#0A223E" stroke-miterlimit="10" d="M690.12 118.542c1.278 0 2.504.507 3.408 1.408a4.8 4.8 0 0 1 1.412 3.4v27.167h-9.647V123.35a4.8 4.8 0 0 1 1.414-3.402 4.82 4.82 0 0 1 3.413-1.406Z"/><mask id="i" fill="#fff"><path fill-rule="evenodd" d="M288.123 324.836v10.022h18.101c15.552 0 28.158-12.607 28.158-28.158s-12.606-28.158-28.158-28.158h-18.101v9.477h17.726c10.166 0 18.408 8.242 18.408 18.408s-8.242 18.409-18.408 18.409z" clip-rule="evenodd"/></mask><path fill="#26A0F8" fill-rule="evenodd" d="M288.123 324.836v10.022h18.101c15.552 0 28.158-12.607 28.158-28.158s-12.606-28.158-28.158-28.158h-18.101v9.477h17.726c10.166 0 18.408 8.242 18.408 18.408s-8.242 18.409-18.408 18.409z" clip-rule="evenodd"/><path fill="#03030F" d="M288.123 334.858h-1v1h1zm0-10.022v-1h-1v1zm46.259-18.136h-1zm-46.259-28.158v-1h-1v1zm0 9.477h-1v1h1zm17.726 0v1zm18.408 18.408h-1zm-35.134 28.431v-10.022h-2v10.022zm17.101-1h-18.101v2h18.101zm27.158-27.158c0 14.999-12.159 27.158-27.158 27.158v2c16.104 0 29.158-13.054 29.158-29.158zm-27.158-27.158c14.999 0 27.158 12.159 27.158 27.158h2c0-16.103-13.054-29.158-29.158-29.158zm-18.101 0h18.101v-2h-18.101zm1 8.477v-9.477h-2v9.477zm-1 1h17.726v-2h-17.726zm17.726 0c9.614 0 17.408 7.794 17.408 17.408h2c0-10.718-8.689-19.408-19.408-19.408zm17.408 17.408c0 9.615-7.794 17.409-17.408 17.409v2c10.719 0 19.408-8.69 19.408-19.409zm-17.408 17.409h-17.726v2h17.726z" mask="url(#i)"/><mask id="j" width="133" height="103" x="170.383" y="264.542" fill="#000" maskUnits="userSpaceOnUse"><path fill="#fff" d="M170.383 264.542h133v103h-133z"/><path fill-rule="evenodd" d="M171.383 265.542h131v71c0 9.389-7.611 17-17 17h-5v1a4 4 0 0 1-4 4h-1v8h-77v-8h-1a4 4 0 0 1-4-4v-1h-5c-9.389 0-17-7.611-17-17z" clip-rule="evenodd"/></mask><path fill="#fff" fill-rule="evenodd" d="M171.383 265.542h131v71c0 9.389-7.611 17-17 17h-5v1a4 4 0 0 1-4 4h-1v8h-77v-8h-1a4 4 0 0 1-4-4v-1h-5c-9.389 0-17-7.611-17-17z" clip-rule="evenodd"/><path fill="#03030F" d="M302.383 265.542h1v-1h-1zm-131 0v-1h-1v1zm109 88v-1h-1v1zm-5 5v-1h-1v1zm0 8v1h1v-1zm-77 0h-1v1h1zm0-8h1v-1h-1zm-5-5h1v-1h-1zm109-89h-131v2h131zm1 72v-71h-2v71zm-18 18c9.941 0 18-8.059 18-18h-2c0 8.837-7.164 16-16 16zm-5 0h5v-2h-5zm-1-1v1h2v-1zm0 1a3 3 0 0 1-3 3v2a5 5 0 0 0 5-5zm-3 3h-1v2h1zm0 9v-8h-2v8zm-78 1h77v-2h-77zm-1-9v8h2v-8zm1-1h-1v2h1zm-1 0a3 3 0 0 1-3-3h-2a5 5 0 0 0 5 5zm-3-3v-1h-2v1zm-6 0h5v-2h-5zm-18-18c0 9.941 8.059 18 18 18v-2c-8.837 0-16-7.163-16-16zm0-71v71h2v-71z" mask="url(#j)"/><mask id="l" width="132" height="102" x="171" y="265" maskUnits="userSpaceOnUse" style="mask-type:alpha"><mask id="k" fill="#fff"><path fill-rule="evenodd" d="M171.383 265.542h131v71c0 9.389-7.611 17-17 17h-5v1a4 4 0 0 1-4 4h-1v8h-77v-8h-1a4 4 0 0 1-4-4v-1h-5c-9.389 0-17-7.611-17-17z" clip-rule="evenodd"/></mask><path fill="#fff" fill-rule="evenodd" d="M171.383 265.542h131v71c0 9.389-7.611 17-17 17h-5v1a4 4 0 0 1-4 4h-1v8h-77v-8h-1a4 4 0 0 1-4-4v-1h-5c-9.389 0-17-7.611-17-17z" clip-rule="evenodd"/><path fill="#000" d="M302.383 265.542h1v-1h-1zm-131 0v-1h-1v1zm109 88v-1h-1v1zm-5 5v-1h-1v1zm0 8v1h1v-1zm-77 0h-1v1h1zm0-8h1v-1h-1zm-5-5h1v-1h-1zm109-89h-131v2h131zm1 72v-71h-2v71zm-18 18c9.941 0 18-8.059 18-18h-2c0 8.837-7.164 16-16 16zm-5 0h5v-2h-5zm-1-1v1h2v-1zm0 1a3 3 0 0 1-3 3v2a5 5 0 0 0 5-5zm-3 3h-1v2h1zm0 9v-8h-2v8zm-78 1h77v-2h-77zm-1-9v8h2v-8zm1-1h-1v2h1zm-1 0a3 3 0 0 1-3-3h-2a5 5 0 0 0 5 5zm-3-3v-1h-2v1zm-6 0h5v-2h-5zm-18-18c0 9.941 8.059 18 18 18v-2c-8.837 0-16-7.163-16-16zm0-71v71h2v-71z" mask="url(#k)"/></mask><g mask="url(#l)"><path fill="#26A0F8" fill-rule="evenodd" d="M377.383 361.174h-102v5.368h-21.672v-7h5.371v-5.5h5.002v-95.5h113.299v102.632" clip-rule="evenodd"/></g><path fill="#03030F" d="M358.084 161.758h6v6.888h-6z"/><path fill="#03030F" stroke="#03030F" d="M365.59 49.822c-9.936 0-24.436 20.039-53.883 20.039 0 14.461-1.615 36.502 13.097 61.846 11.348 19.548 27.85 20.615 39.286 36.115 12.064-15.5 28.557-16.429 40.14-36.115 14.872-25.274 13.383-45.885 13.383-60.846-30.959 0-42.087-21.039-52.023-21.039Z"/><path fill="#fff" stroke="#03030F" d="M357.59 49.822c-9.936 0-22.436 20.039-51.883 20.039 0 14.461-1.615 36.502 13.097 61.846 11.348 19.548 27.85 20.615 39.286 36.115 12.064-15.5 24.557-16.429 36.14-36.115 14.872-25.274 13.383-45.885 13.383-60.846-30.959 0-40.087-21.039-50.023-21.039Z"/><path fill="#D4ECFE" stroke="#03030F" d="M336.154 95.822h41v15.5c0 11.322-9.178 20.5-20.5 20.5s-20.5-9.178-20.5-20.5z"/><path stroke="#03030F" d="M370.154 95.822h-27v-7.5c0-7.456 6.044-13.5 13.5-13.5s13.5 6.044 13.5 13.5z"/><path stroke="#03030F" d="M366.154 95.822h-19v-8c0-5.246 4.254-9.5 9.5-9.5a9.5 9.5 0 0 1 9.5 9.5z"/><path fill="#03030F" d="m356.654 109.322 4.33 7.5h-8.66z"/><rect width="6" height="7" x="353.654" y="105.322" fill="#03030F" rx="3"/><rect width="137.274" height="28.953" x="293.227" y="216.414" fill="#03030F" stroke="#03030F" rx="3.5"/><rect width="132.69" height="28.953" x="297.811" y="216.414" fill="#fff" stroke="#03030F" rx="3.5"/><circle cx="310.825" cy="230.891" r="3.287" fill="#03030F"/><circle cx="326.604" cy="230.891" r="3.287" fill="#03030F"/><circle cx="342.385" cy="230.891" r="3.287" fill="#03030F"/><circle cx="358.164" cy="230.891" r="3.287" fill="#03030F"/><circle cx="373.653" cy="230.891" r="3.287" fill="#03030F"/><path stroke="#03030F" d="M415.654 218.042V191.68c0-6.627-5.372-12-12-12h-36a6 6 0 0 1-6-6v-8.638"/><circle cx="7" cy="7" r="6.5" fill="#26A0F8" stroke="#03030F" transform="matrix(1 0 0 -1 408.654 224.542)"/><mask id="n" width="100" height="34" x="48" y="334" maskUnits="userSpaceOnUse" style="mask-type:alpha"><mask id="m" fill="#fff"><path fill-rule="evenodd" d="M147.293 367.542H48c1.698-5.353 6.708-9.232 12.623-9.232q.563 0 1.115.046c1.019-8.894 8.572-15.802 17.74-15.802 3.099 0 6.014.79 8.554 2.179 4.435-6.171 11.676-10.191 19.856-10.191 9.608 0 17.921 5.546 21.913 13.611 9.713.022 17.58 7.903 17.58 17.622q0 .895-.088 1.767" clip-rule="evenodd"/></mask><path fill="#26A0F8" fill-rule="evenodd" d="M147.293 367.542H48c1.698-5.353 6.708-9.232 12.623-9.232q.563 0 1.115.046c1.019-8.894 8.572-15.802 17.74-15.802 3.099 0 6.014.79 8.554 2.179 4.435-6.171 11.676-10.191 19.856-10.191 9.608 0 17.921 5.546 21.913 13.611 9.713.022 17.58 7.903 17.58 17.622q0 .895-.088 1.767" clip-rule="evenodd"/><path fill="#0A223E" d="m48 367.542-.953-.302-.413 1.302H48zm99.293 0v1h.906l.09-.901zm-85.555-9.186-.083.997.966.08.11-.963zm26.294-13.623-.48.877.776.425.516-.718zm41.769 3.42-.896.443.274.555.619.002zM48 368.542h99.293v-2H48zm.953-.697c1.57-4.95 6.203-8.535 11.67-8.535v-2c-6.364 0-11.75 4.173-13.576 9.93zm11.67-8.535q.522 0 1.032.043l.166-1.993q-.593-.05-1.198-.05zm2.108-.84c.962-8.395 8.093-14.916 16.746-14.916v-2c-9.68 0-17.657 7.295-18.733 16.688zm16.746-14.916c2.928 0 5.678.746 8.075 2.056l.96-1.754a18.8 18.8 0 0 0-9.035-2.302zm9.367 1.763c4.255-5.922 11.2-9.775 19.044-9.775v-2c-8.515 0-16.053 4.186-20.668 10.607zm19.044-9.775c9.213 0 17.187 5.317 21.017 13.054l1.792-.887c-4.154-8.392-12.806-14.167-22.809-14.167zm21.91 13.611c9.162.021 16.583 7.455 16.583 16.622h2c0-10.27-8.313-18.598-18.578-18.622zm16.583 16.622q0 .845-.083 1.668l1.991.198q.092-.921.092-1.866z" mask="url(#m)"/></mask><g mask="url(#n)"><path fill="#0A223E" d="M49.215 287.553h1v257h-1zM55.215 287.553h1v257h-1zM61.215 287.553h1v257h-1zM67.215 287.553h1v257h-1zM73.215 287.553h1v257h-1zM79.215 287.553h1v257h-1zM85.215 287.553h1v257h-1zM91.215 287.553h1v257h-1zM97.215 287.553h1v257h-1zM103.215 287.553h1v257h-1zM109.215 287.553h1v257h-1zM115.215 287.553h1v257h-1zM121.215 287.553h1v257h-1zM127.215 287.553h1v257h-1zM133.215 287.553h1v257h-1zM139.215 287.553h1v257h-1zM145.215 287.553h1v257h-1z"/><path stroke="#0A223E" d="M43.715 288.053h585.177v249.804H43.715z"/><mask id="o" fill="#fff"><path fill-rule="evenodd" d="M146.911 367.542H47.617c1.699-5.353 6.708-9.232 12.623-9.232q.564 0 1.115.046c1.019-8.894 8.572-15.802 17.74-15.802 3.099 0 6.014.79 8.554 2.179 4.435-6.171 11.676-10.191 19.856-10.191 9.608 0 17.921 5.546 21.913 13.611 9.713.022 17.58 7.903 17.58 17.622q0 .895-.087 1.767" clip-rule="evenodd"/></mask><path fill="#26A0F8" fill-rule="evenodd" d="M146.911 367.542H47.617c1.699-5.353 6.708-9.232 12.623-9.232q.564 0 1.115.046c1.019-8.894 8.572-15.802 17.74-15.802 3.099 0 6.014.79 8.554 2.179 4.435-6.171 11.676-10.191 19.856-10.191 9.608 0 17.921 5.546 21.913 13.611 9.713.022 17.58 7.903 17.58 17.622q0 .895-.087 1.767" clip-rule="evenodd"/><path fill="#0A223E" d="m47.617 367.542-.953-.302-.413 1.302h1.366zm99.294 0v1h.905l.09-.901zm-85.556-9.186-.083.997.966.08.11-.963zm26.294-13.623-.48.877.776.425.516-.718zm41.769 3.42-.896.443.274.555.62.002zm-81.8 20.389h99.293v-2H47.617zm.952-.697c1.57-4.95 6.203-8.535 11.67-8.535v-2c-6.363 0-11.75 4.173-13.576 9.93zm11.67-8.535q.522 0 1.032.043l.166-1.993q-.593-.05-1.198-.05zm2.108-.84c.962-8.395 8.094-14.916 16.746-14.916v-2c-9.68 0-17.656 7.295-18.733 16.688zm16.746-14.916c2.928 0 5.679.746 8.075 2.056l.96-1.754a18.8 18.8 0 0 0-9.035-2.302zm9.367 1.763c4.256-5.922 11.2-9.775 19.044-9.775v-2c-8.515 0-16.053 4.186-20.668 10.607zm19.044-9.775c9.214 0 17.187 5.317 21.017 13.054l1.792-.887c-4.154-8.392-12.806-14.167-22.809-14.167zm21.911 13.611c9.162.021 16.582 7.455 16.582 16.622h2c0-10.27-8.313-18.598-18.578-18.622zm16.582 16.622q0 .845-.082 1.668l1.99.198q.092-.921.092-1.866z" mask="url(#o)"/></g><mask id="p" fill="#fff"><path fill-rule="evenodd" d="M202.658 367.542H82.388a16 16 0 0 1-.005-.376c0-8.629 6.995-15.624 15.624-15.624 1.938 0 3.794.353 5.507.999 1.249-11.803 11.235-20.999 23.369-20.999 2.197 0 4.324.302 6.341.866a28.4 28.4 0 0 1 19.659-7.866c9.632 0 18.149 4.779 23.308 12.095a25 25 0 0 1 2.192-.095c13.807 0 25 11.193 25 25 0 2.069-.251 4.078-.725 6" clip-rule="evenodd"/></mask><path fill="#fff" fill-rule="evenodd" d="M202.658 367.542H82.388a16 16 0 0 1-.005-.376c0-8.629 6.995-15.624 15.624-15.624 1.938 0 3.794.353 5.507.999 1.249-11.803 11.235-20.999 23.369-20.999 2.197 0 4.324.302 6.341.866a28.4 28.4 0 0 1 19.659-7.866c9.632 0 18.149 4.779 23.308 12.095a25 25 0 0 1 2.192-.095c13.807 0 25 11.193 25 25 0 2.069-.251 4.078-.725 6" clip-rule="evenodd"/><path fill="#0A223E" d="m82.387 367.542-1 .024.024.976h.976zm120.271 0v1h.784l.187-.76zm-99.144-15.001-.352.936 1.211.456.136-1.287zm29.71-20.133-.269.963.547.153.412-.392zm42.967 4.229-.818.576.332.47.572-.05zm-93.804 31.905h120.271v-2H82.388zm1-1.023a15 15 0 0 1-.004-.353h-2q0 .2.005.4zm-.004-.353c0-8.076 6.547-14.624 14.624-14.624v-2c-9.181 0-16.624 7.443-16.624 16.624zm14.624-14.624c1.816 0 3.553.331 5.155.935l.705-1.872a16.6 16.6 0 0 0-5.86-1.063zm6.502.104c1.195-11.299 10.757-20.104 22.374-20.104v-2c-12.651 0-23.061 9.588-24.363 21.894zm22.374-20.104c2.105 0 4.141.289 6.072.829l.538-1.926a24.5 24.5 0 0 0-6.61-.903zm7.031.59a27.4 27.4 0 0 1 18.969-7.59v-2a29.4 29.4 0 0 0-20.349 8.142zm18.969-7.59c9.294 0 17.511 4.61 22.49 11.671l1.635-1.152c-5.338-7.57-14.154-12.519-24.125-12.519zm23.394 12.091q1.041-.09 2.106-.091v-2q-1.152 0-2.279.099zm2.106-.091c13.255 0 24 10.746 24 24h2c0-14.359-11.641-26-26-26zm24 24c0 1.987-.241 3.917-.696 5.761l1.942.479c.493-2 .754-4.09.754-6.24z" mask="url(#p)"/><path stroke="#0A223E" d="m135.883 367.042-12-24.5m21.5 24.5v-7.5m0-22.5v22.5m0 0 13.5-12.5m-46.5 20-2.5-4m61.5 4 8.5-15.5"/><path fill="#03030F" d="M367 314.542c0-12.15 9.85-22 22-22s22 9.85 22 22v52h-44z"/><path fill="#fff" stroke="#03030F" d="M371.5 314.542c0-11.874 9.626-21.5 21.5-21.5s21.5 9.626 21.5 21.5v51.5h-43z"/><path stroke="#03030F" d="M232.633 259.292s-29.25-13.095-29.25-29.25c0-16.154 29.25-13.095 29.25-29.25 0-16.154-29.25-29.25-29.25-29.25"/><path stroke="#03030F" d="M255.344 260.292s-29.25-13.095-29.25-29.25c0-16.154 29.25-13.095 29.25-29.25 0-16.154-15.75-23.5-15.75-23.5M201.773 354.042h78.797M202.711 359.042h73.187"/><path fill="#D4ECFE" d="M870.27 236.748h20v38h-20zM900.27 236.748h20v38h-20zM930.27 236.748h20v38h-20zM960.27 236.748h20v38h-20zM990.27 236.748h20v38h-20z"/><mask id="q" fill="#fff"><path fill-rule="evenodd" d="M836.276 238.478c.263-1.164.402-2.375.402-3.618 0-9.012-7.305-16.318-16.317-16.318s-16.318 7.306-16.318 16.318c0 1.198.129 2.366.374 3.491-8.087 3.425-13.761 11.434-13.761 20.769 0 3.662.873 7.12 2.422 10.177-6.226 5.325-10.172 13.238-10.172 22.073 0 16.036 13 29.035 29.035 29.035 2.869 0 5.64-.416 8.258-1.191a29 29 0 0 0 8.258 1.191c16.035 0 29.034-12.999 29.034-29.035 0-8.834-3.945-16.746-10.169-22.072a22.45 22.45 0 0 0 2.422-10.178c0-9.222-5.537-17.151-13.468-20.642" clip-rule="evenodd"/></mask><path fill="#26A0F8" fill-rule="evenodd" d="M836.276 238.478c.263-1.164.402-2.375.402-3.618 0-9.012-7.305-16.318-16.317-16.318s-16.318 7.306-16.318 16.318c0 1.198.129 2.366.374 3.491-8.087 3.425-13.761 11.434-13.761 20.769 0 3.662.873 7.12 2.422 10.177-6.226 5.325-10.172 13.238-10.172 22.073 0 16.036 13 29.035 29.035 29.035 2.869 0 5.64-.416 8.258-1.191a29 29 0 0 0 8.258 1.191c16.035 0 29.034-12.999 29.034-29.035 0-8.834-3.945-16.746-10.169-22.072a22.45 22.45 0 0 0 2.422-10.178c0-9.222-5.537-17.151-13.468-20.642" clip-rule="evenodd"/><path fill="#03030F" d="m836.276 238.478-.976-.221-.181.804.754.332zm-31.859-.127.39.921.764-.323-.177-.811zm-11.339 30.946.65.759.597-.51-.355-.701zm27.121 49.917.284-.959-.284-.084-.284.084zm27.123-49.916-.892-.452-.356.701.598.511zm-11.644-34.438c0 1.168-.13 2.305-.378 3.397l1.951.441c.28-1.235.427-2.52.427-3.838zm-15.317-15.318c8.459 0 15.317 6.858 15.317 15.318h2c0-9.564-7.753-17.318-17.317-17.318zm-15.318 15.318c0-8.46 6.858-15.318 15.318-15.318v-2c-9.565 0-17.318 7.754-17.318 17.318zm.351 3.278a15.4 15.4 0 0 1-.351-3.278h-2c0 1.27.137 2.51.397 3.704zm-13.738 20.982c0-8.919 5.421-16.575 13.151-19.848l-.78-1.842c-8.444 3.576-14.371 11.94-14.371 21.69zm2.314 9.725a21.46 21.46 0 0 1-2.314-9.725h-2c0 3.823.912 7.435 2.53 10.629zm-10.064 22.525c0-8.53 3.809-16.17 9.822-21.314l-1.3-1.519c-6.438 5.507-10.522 13.694-10.522 22.833zm28.035 28.035c-15.483 0-28.035-12.552-28.035-28.035h-2c0 16.588 13.447 30.035 30.035 30.035zm7.974-1.15a28 28 0 0 1-7.974 1.15v2c2.966 0 5.833-.43 8.542-1.232zm8.542 1.15c-2.772 0-5.448-.402-7.974-1.15l-.568 1.918a30 30 0 0 0 8.542 1.232zm28.034-28.035c0 15.483-12.551 28.035-28.034 28.035v2c16.587 0 30.034-13.447 30.034-30.035zm-9.819-21.312c6.012 5.144 9.819 12.783 9.819 21.312h2c0-9.138-4.082-17.324-10.519-22.832zm2.072-10.938a21.45 21.45 0 0 1-2.314 9.726l1.784.904a23.45 23.45 0 0 0 2.53-10.63zm-12.871-19.727c7.581 3.338 12.871 10.916 12.871 19.727h2c0-9.632-5.784-17.912-14.065-21.558z" mask="url(#q)"/><path fill="#0A223E" stroke="#0A223E" d="m820 234.042-4 132h7.5z"/><mask id="r" width="92" height="78" x="439.502" y="58.252" fill="#000" maskUnits="userSpaceOnUse"><path fill="#fff" d="M439.502 58.252h92v78h-92z"/><path d="M459.654 59.252c30.808 0 70.847.38 70.847.38s.5 74.912-18 74.912h-71.5s7.875-3.314 11-8c10-15 7.653-42.37 7.653-67.292"/></mask><path fill="#03030F" d="m530.501 59.631.009-1 .984.01.007.983zm-70.847-.38h-1v-1h1zm-18.653 75.293v1a1.001 1.001 0 0 1-.388-1.922zm11-8-.832-.555zm78.5-66.913-.01 1h-.116q-.114-.003-.341-.004l-1.323-.012-4.956-.043c-4.235-.036-10.202-.083-17.131-.13-13.86-.095-31.569-.19-46.97-.19v-2c15.408 0 33.122.095 46.983.19a11211 11211 0 0 1 23.416.185l.341.003.087.001h.029zm-89.5 73.913h71.5v2h-71.5zm19.653-74.292c0 12.395.587 25.556-.078 37.423-.665 11.863-2.586 22.688-7.743 30.424l-1.664-1.11c4.842-7.263 6.748-17.623 7.41-29.426.661-11.798.075-24.783.075-37.311zm-7.821 67.847c-1.691 2.535-4.602 4.629-6.99 6.06a42 42 0 0 1-4.087 2.145l-.267.119-.073.031-.019.008-.006.003h-.002v.001l-.388-.922-.388-.922.003-.001.014-.006.061-.026.243-.108a39.625 39.625 0 0 0 3.881-2.037c2.331-1.397 4.92-3.304 6.354-5.455zm59.668 6.445c1.931 0 3.692-.965 5.326-2.87 1.645-1.918 3.093-4.718 4.351-8.177 2.514-6.912 4.176-16.183 5.267-25.525 1.089-9.328 1.604-18.662 1.845-25.67.121-3.503.174-6.421.196-8.463.011-1.02.015-1.822.016-2.368v-.622l-.001-.159v-.052l1-.007c1-.007 1-.006 1-.005v.055l.001.162v.631c-.001.552-.005 1.36-.016 2.387-.023 2.055-.075 4.99-.197 8.51-.243 7.038-.76 16.432-1.858 25.833-1.096 9.385-2.778 18.842-5.373 25.977-1.297 3.564-2.845 6.617-4.713 8.795-1.88 2.192-4.151 3.568-6.844 3.568z" mask="url(#r)"/><path stroke="#03030F" d="M530.5 142.044h-73.392v-6.942"/><path fill="#fff" stroke="#03030F" d="M552 57.044h-21v85h21z"/><mask id="s" width="22" height="86" x="532" y="57" maskUnits="userSpaceOnUse" style="mask-type:alpha"><path fill="#fff" d="M553.5 57.544h-21v85h21z"/></mask><g fill="#03030F" mask="url(#s)"><path d="M552.5 9.137h-1V454.02h1zM549.5 9.137h-1V454.02h1zM546.5 9.137h-1V454.02h1zM543.5 9.137h-1V454.02h1zM540.5 9.137h-1V454.02h1zM537.5 9.137h-1V454.02h1zM534.5 9.137h-1V454.02h1z"/></g><path fill="#03030F" d="M552.5 54.544h-93.863v9H552.5z"/><path fill="#03030F" stroke="#03030F" stroke-miterlimit="10" d="M865.784 106.542h-39.537c-7.837 0-14.19 6.338-14.19 14.155s6.353 14.155 14.19 14.155h39.537c7.837 0 14.19-6.338 14.19-14.155s-6.353-14.155-14.19-14.155Z"/><path fill="#fff" stroke="#03030F" stroke-miterlimit="10" d="M859.727 106.542H820.19c-7.837 0-14.19 6.338-14.19 14.155s6.353 14.155 14.19 14.155h39.537c7.837 0 14.19-6.338 14.19-14.155s-6.353-14.155-14.19-14.155Z"/><path fill="#03030F" d="M831.798 115.912a3.82 3.82 0 0 1 2.587.772 2.9 2.9 0 0 1 .882 2.291c0 2.11-1.208 3.171-3.626 3.171h-1.523v2.314h-1.704v-8.548zm-.205 4.727c1.293 0 1.946-.531 1.946-1.604s-.604-1.616-1.813-1.616h-1.596v3.22zM836.32 124.461v-8.549h1.705v3.822h3.928v-3.822h1.728v8.549h-1.692v-3.159h-3.928v3.159zM848.699 115.912a3.8 3.8 0 0 1 2.586.772 2.89 2.89 0 0 1 .883 2.291c0 2.11-1.209 3.171-3.626 3.171h-1.523v2.315h-1.705v-8.549zm-.181 4.727c1.293 0 1.946-.531 1.946-1.604s-.605-1.616-1.813-1.616h-1.596v3.22z"/><mask id="t" width="24" height="208" x="1071" y="0" maskUnits="userSpaceOnUse" style="mask-type:alpha"><path fill="#03030F" stroke="#0A184C" stroke-miterlimit="10" d="M1072.44 206.534h22V10.542c0-5.522-4.48-10-10-10h-12z"/></mask><g mask="url(#t)"><path fill="#03030F" stroke="#03030F" stroke-miterlimit="10" d="M1072.44 206.542h22v-192c0-7.732-6.27-14-14-14h-8z"/></g><path fill="#fff" stroke="#03030F" stroke-miterlimit="10" d="M1071.96.542H790.439a9 9 0 0 0-9 9v196.5h302.521v-193.5c0-6.627-5.37-12-12-12Z"/><path stroke="#03030F" d="M801.684 127.042h138.5M801.684 135.042h138.5M801.684 143.042h138.5M801.684 151.042h138.5M801.684 159.042h138.5M843.682 97.426h59.645M843.682 105.426h36.587M468.369 74.967h50.871M468.369 82.967h31.205M468.369 91.967H489.4"/><circle cx="815.297" cy="101.426" r="15.383" fill="#0A223E" stroke="#0A223E"/><circle cx="817.567" cy="101.426" r="15.383" fill="#fff" stroke="#0A223E"/><path fill="#0A223E" d="M817.396 99.184a2.853 2.853 0 0 0 2.857-2.85 2.853 2.853 0 0 0-2.857-2.85 2.853 2.853 0 0 0-2.857 2.85 2.853 2.853 0 0 0 2.857 2.85M822.432 107.805a2.13 2.13 0 0 0 1.769-.946 2.11 2.11 0 0 0 .183-1.993 7.64 7.64 0 0 0-2.822-3.335 7.67 7.67 0 0 0-8.386 0 7.64 7.64 0 0 0-2.822 3.335 2.122 2.122 0 0 0 1.964 2.939z"/><path fill="#03030F" stroke="#03030F" stroke-miterlimit="10" d="M982.753 206.534h107.777v-15.492H982.753z"/><path fill="#fff" stroke="#03030F" stroke-miterlimit="10" d="M1020.52 190.542H719a8 8 0 0 0 0 16h311.52v-6c0-5.522-4.48-10-10-10Z"/><path fill="#D4ECFE" d="M803.424 36.542v34.49h34.489z"/><path fill="#D4ECFE" d="M835.941 36.542v34.49h33.504zM869.445 36.542v34.49h33.504z"/><path fill="#D4ECFE" d="M902.949 36.542v34.49h34.489z"/><path stroke="#03030F" d="M802.939 37.042h33.489v33.489h-33.489zM836.443 37.042h33.489v33.489h-33.489zM869.947 37.042h33.489v33.489h-33.489zM903.451 37.042h33.489v33.489h-33.489zM781.439 17.542h302.521"/><circle cx="799.414" cy="9.042" r="2.5" fill="#03030F"/><circle cx="811.414" cy="9.042" r="2.5" fill="#03030F"/><circle cx="823.414" cy="9.042" r="2.5" fill="#03030F"/><circle cx="835.414" cy="9.042" r="2.5" fill="#03030F"/><mask id="u" fill="#fff"><path fill-rule="evenodd" d="M1019.04 185.542h19.92l.24 1h3.6l.24-1h3.96v5H733v-5h17.96l.24 1h3.6l.24-1h19.92l.24 1h3.6l.24-1h19.92l.24 1h3.6l.24-1h19.92l.24 1h3.6l.24-1h19.92l.24 1h3.6l.24-1h19.92l.24 1h3.6l.24-1h19.92l.24 1h3.6l.24-1h19.92l.24 1h3.6l.24-1h19.92l.24 1h3.6l.24-1h19.92l.24 1h3.6l.24-1h19.92l.24 1h3.6l.24-1h19.92l.24 1h3.6z" clip-rule="evenodd"/></mask><path fill="#D4ECFE" fill-rule="evenodd" d="M1019.04 185.542h19.92l.24 1h3.6l.24-1h3.96v5H733v-5h17.96l.24 1h3.6l.24-1h19.92l.24 1h3.6l.24-1h19.92l.24 1h3.6l.24-1h19.92l.24 1h3.6l.24-1h19.92l.24 1h3.6l.24-1h19.92l.24 1h3.6l.24-1h19.92l.24 1h3.6l.24-1h19.92l.24 1h3.6l.24-1h19.92l.24 1h3.6l.24-1h19.92l.24 1h3.6l.24-1h19.92l.24 1h3.6l.24-1h19.92l.24 1h3.6z" clip-rule="evenodd"/><path fill="#03030F" d="m1038.96 185.542.97-.233-.18-.767h-.79zm-19.92 0v-1h-.79l-.18.767zm20.16 1-.97.234.18.766h.79zm3.6 0v1h.79l.18-.766zm.24-1v-1h-.79l-.18.767zm3.96 0h1v-1h-1zm0 5v1h1v-1zm-314 0h-1v1h1zm0-5v-1h-1v1zm17.96 0 .972-.233-.184-.767h-.788zm.24 1-.972.234.184.766h.788zm3.6 0v1h.788l.184-.766zm.24-1v-1h-.788l-.184.767zm19.92 0 .972-.233-.184-.767h-.788zm.24 1-.972.234.184.766h.788zm3.6 0v1h.788l.184-.766zm.24-1v-1h-.788l-.184.767zm19.92 0 .972-.233-.184-.767h-.788zm.24 1-.972.234.184.766h.788zm3.6 0v1h.788l.184-.766zm.24-1v-1h-.788l-.184.767zm19.92 0 .972-.233-.184-.767h-.788zm.24 1-.972.234.184.766h.788zm3.6 0v1h.788l.184-.766zm.24-1v-1h-.788l-.184.767zm19.92 0 .972-.233-.184-.767h-.788zm.24 1-.972.234.184.766h.788zm3.6 0v1h.788l.184-.766zm.24-1v-1h-.788l-.184.767zm19.92 0 .972-.233-.184-.767h-.788zm.24 1-.972.234.184.766h.788zm3.6 0v1h.788l.184-.766zm.24-1v-1h-.788l-.184.767zm19.92 0 .972-.233-.184-.767h-.788zm.24 1-.972.234.184.766h.788zm3.6 0v1h.788l.184-.766zm.24-1v-1h-.788l-.184.767zm19.92 0 .972-.233-.184-.767h-.788zm.24 1-.972.234.184.766h.788zm3.6 0v1h.788l.184-.766zm.24-1v-1h-.788l-.184.767zm19.92 0 .972-.233-.184-.767h-.788zm.24 1-.972.234.184.766h.788zm3.6 0v1h.788l.184-.766zm.24-1v-1h-.788l-.184.767zm19.92 0 .972-.233-.184-.767h-.788zm.24 1-.972.234.184.766h.788zm3.6 0v1h.788l.184-.766zm.24-1v-1h-.788l-.184.767zm19.92 0 .972-.233-.184-.767h-.788zm.24 1-.972.234.184.766h.788zm3.6 0v1h.788l.184-.766zm.24-1v-1h-.788l-.184.767zm19.92 0 .97-.233-.18-.767h-.79zm.24 1-.97.234.18.766h.79zm3.6 0v1h.79l.18-.766zm20.16-2h-19.92v2h19.92zm1.21 1.767-.24-1-1.94.467.24 1zm2.63-.767h-3.6v2h3.6zm-.73-.233-.24 1 1.94.467.24-1zm4.93-.767h-3.96v2h3.96zm1 6v-5h-2v5zm-315 1h314v-2H733zm-1-6v5h2v-5zm18.96-1H733v2h17.96zm1.212 1.767-.24-1-1.944.467.24 1zm2.628-.767h-3.6v2h3.6zm-.732-.233-.24 1 1.944.467.24-1zm20.892-.767h-19.92v2h19.92zm1.212 1.767-.24-1-1.944.467.24 1zm2.628-.767h-3.6v2h3.6zm-.732-.233-.24 1 1.944.467.24-1zm20.892-.767h-19.92v2h19.92zm1.212 1.767-.24-1-1.944.467.24 1zm2.628-.767h-3.6v2h3.6zm-.732-.233-.24 1 1.944.467.24-1zm20.892-.767h-19.92v2h19.92zm1.212 1.767-.24-1-1.944.467.24 1zm2.628-.767h-3.6v2h3.6zm-.732-.233-.24 1 1.944.467.24-1zm20.892-.767h-19.92v2h19.92zm1.212 1.767-.24-1-1.944.467.24 1zm2.628-.767h-3.6v2h3.6zm-.732-.233-.24 1 1.944.467.24-1zm20.892-.767h-19.92v2h19.92zm1.212 1.767-.24-1-1.944.467.24 1zm2.628-.767h-3.6v2h3.6zm-.732-.233-.24 1 1.944.467.24-1zm20.892-.767h-19.92v2h19.92zm1.212 1.767-.24-1-1.944.467.24 1zm2.628-.767h-3.6v2h3.6zm-.732-.233-.24 1 1.944.467.24-1zm20.892-.767h-19.92v2h19.92zm1.212 1.767-.24-1-1.944.467.24 1zm2.628-.767h-3.6v2h3.6zm-.732-.233-.24 1 1.944.467.24-1zm20.892-.767h-19.92v2h19.92zm1.212 1.767-.24-1-1.944.467.24 1zm2.628-.767h-3.6v2h3.6zm-.732-.233-.24 1 1.944.467.24-1zm20.892-.767h-19.92v2h19.92zm1.212 1.767-.24-1-1.944.467.24 1zm2.628-.767h-3.6v2h3.6zm-.732-.233-.24 1 1.944.467.24-1zm20.892-.767h-19.92v2h19.92zm1.212 1.767-.24-1-1.944.467.24 1zm2.628-.767h-3.6v2h3.6zm-.732-.233-.24 1 1.944.467.24-1zm20.892-.767h-19.92v2h19.92zm1.21 1.767-.24-1-1.94.467.24 1zm2.63-.767h-3.6v2h3.6zm-.73-.233-.24 1 1.94.467.24-1z" mask="url(#u)"/><path fill="#D4ECFE" d="M837.861 190.908h65.801a6.88 6.88 0 0 1-6.881 6.88h-52.039a6.88 6.88 0 0 1-6.881-6.88M231.087 293.324c-5.656-1.978-11.309-2.146-15.777-.815a15.4 15.4 0 0 0-3.937 1.297c-4.782 2.327-7.828 6.81-8.544 11.724l-.003-.016c-1.993-10.478 2.239-20.096 9.452-21.482 3.018-.58 6.08.374 8.766 2.446-3.411-4.339-7.897-6.69-12.276-5.849-7.53 1.448-11.891 11.788-9.741 23.097 1.23 6.47 4.325 11.853 8.159 15.005 4.133 4.154 10.389 5.682 16.074 3.64-7.976 6.693-18.135 7.7-22.863 2.198-2.009-2.338-2.718-5.481-2.276-8.856-2.032 5.139-1.815 10.221 1.1 13.613 5.012 5.833 16.1 4.46 24.765-3.066 4.379-3.804 7.3-8.45 8.473-12.869a15.54 15.54 0 0 0-.487-12.382 15.4 15.4 0 0 0-4.001-5.155c9.83 3.572 15.841 11.957 13.455 18.854-1.01 2.918-3.363 5.107-6.491 6.41 5.443-.801 9.711-3.531 11.176-7.764 2.518-7.281-4.208-16.248-15.024-20.03"/><path stroke="#fff" d="M1083.44 155.464c-.36 2.507-1.09 4.444-1.52 4.832M1058.16 138.803c-1.94-1.633-3.2-3.277-3.3-3.848"/><mask id="v" fill="#fff"><path fill-rule="evenodd" d="M1057.4 79.498c-2.77-11.384-13.64-18.515-24.27-15.928s-17 13.912-14.23 25.295c2.34 9.607 10.44 16.186 19.3 16.45-5.72 15.408-6.15 39.286.05 64.75 9.9 40.684 32.95 70.009 51.48 65.499 17.96-4.371 25.09-38.925 16.49-78.091 12.85-2.704 27.96-12.536 38.69-26.666 17.67-33.018 3.09-58.738-10.41-58.738-15.87 0-18.04 10.195-20.8 23.106-.72 3.365-1.48 6.913-2.53 10.513-2.55 8.737-8.95 15.158-15.12 20.693-10.47-23.217-25.1-38.507-38.2-38.604.36-2.67.23-5.473-.45-8.28" clip-rule="evenodd"/></mask><path fill="#D4ECFE" fill-rule="evenodd" d="M1057.4 79.498c-2.77-11.384-13.64-18.515-24.27-15.928s-17 13.912-14.23 25.295c2.34 9.607 10.44 16.186 19.3 16.45-5.72 15.408-6.15 39.286.05 64.75 9.9 40.684 32.95 70.009 51.48 65.499 17.96-4.371 25.09-38.925 16.49-78.091 12.85-2.704 27.96-12.536 38.69-26.666 17.67-33.018 3.09-58.738-10.41-58.738-15.87 0-18.04 10.195-20.8 23.106-.72 3.365-1.48 6.913-2.53 10.513-2.55 8.737-8.95 15.158-15.12 20.693-10.47-23.217-25.1-38.507-38.2-38.604.36-2.67.23-5.473-.45-8.28" clip-rule="evenodd"/><path fill="#0A223E" d="m1033.13 63.57-.23-.972zm24.27 15.928-.98.236zm-38.5 9.367-.97.237zm19.3 16.45.94.348.49-1.306-1.4-.042zm.05 64.75.97-.237zm51.48 65.499.24.972zm16.49-78.091-.2-.979-.99.208.22.985zm38.69-26.666.8.605.05-.063.04-.07zm-10.41-58.738v-1zm-20.8 23.106-.98-.208zm-2.53 10.513-.96-.279zm-15.12 20.693-.91.411.56 1.246 1.02-.913zm-38.2-38.604-.99-.132-.15 1.124 1.13.008zm-24.48-23.235c10.03-2.442 20.4 4.281 23.05 15.192l1.95-.473c-2.89-11.856-14.25-19.395-25.47-16.663zm-13.5 24.087c-2.65-10.91 3.47-21.646 13.5-24.088l-.47-1.943c-11.23 2.733-17.86 14.647-14.97 26.504zm18.36 15.686c-8.38-.25-16.12-6.487-18.36-15.686l-1.94.473c2.44 10.015 10.9 16.934 20.24 17.212zm.99 65.513c-6.17-25.35-5.71-49.009-.08-64.165l-1.87-.697c-5.82 15.66-6.22 39.757.01 65.335zm50.27 64.764c-8.65 2.106-18.68-3.654-27.95-15.448-9.21-11.717-17.39-29.08-22.32-49.316l-1.94.473c4.97 20.448 13.26 38.09 22.69 50.079 9.36 11.912 20.12 18.56 30 16.156zm15.76-76.905c4.27 19.48 4.62 37.764 1.71 51.675-2.94 13.997-9.08 23.19-17.47 25.23l.48 1.944c9.58-2.331 15.97-12.6 18.94-26.764 2.99-14.25 2.61-32.827-1.71-52.514zm38.87-27.485c-10.62 13.977-25.53 23.646-38.1 26.292l.41 1.957c13.13-2.762 28.43-12.755 39.28-27.039zm-9.62-57.133c6.1 0 12.87 5.907 15.94 16.271 3.04 10.27 2.32 24.684-6.41 40.995l1.77.944c8.94-16.707 9.76-31.662 6.55-42.506-3.18-10.751-10.46-17.704-17.85-17.704zm-19.83 22.315c1.4-6.519 2.6-12.071 5.34-16.036 2.64-3.837 6.81-6.28 14.49-6.28v-2c-8.19 0-13.04 2.656-16.14 7.145-3.01 4.361-4.28 10.362-5.64 16.754zm-2.54 10.584c1.06-3.641 1.83-7.224 2.54-10.584l-1.95-.417c-.72 3.368-1.47 6.882-2.51 10.442zm-15.41 21.157c6.17-5.539 12.78-12.124 15.41-21.157l-1.92-.559c-2.46 8.439-8.66 14.697-14.83 20.228zm-38.88-38.348c6.17.046 12.86 3.682 19.38 10.332 6.5 6.631 12.72 16.15 17.92 27.683l1.82-.822c-5.26-11.684-11.6-21.419-18.31-28.261-6.69-6.824-13.86-10.88-20.79-10.932zm-1.42-9.043a21.3 21.3 0 0 1 .44 7.911l1.98.264c.37-2.792.24-5.72-.47-8.648z" mask="url(#v)"/><mask id="w" fill="#fff"><path fill-rule="evenodd" d="M1174.7 124.607c5.96-1.45 12.52 4.464 14.64 13.208 2.13 8.744-.97 17.007-6.93 18.457-1.51.369-3.07.262-4.57-.246 2.32 10.076 1.96 22.752-1.64 35.823-7.44 26.99-25.88 45.446-41.2 41.224s-21.71-29.524-14.28-56.513c7.44-26.989 25.89-45.445 41.21-41.223 1.86.511 3.58 1.333 5.17 2.43-.05-6.568 2.88-12.009 7.6-13.16" clip-rule="evenodd"/></mask><path fill="#D4ECFE" fill-rule="evenodd" d="M1174.7 124.607c5.96-1.45 12.52 4.464 14.64 13.208 2.13 8.744-.97 17.007-6.93 18.457-1.51.369-3.07.262-4.57-.246 2.32 10.076 1.96 22.752-1.64 35.823-7.44 26.99-25.88 45.446-41.2 41.224s-21.71-29.524-14.28-56.513c7.44-26.989 25.89-45.445 41.21-41.223 1.86.511 3.58 1.333 5.17 2.43-.05-6.568 2.88-12.009 7.6-13.16" clip-rule="evenodd"/><path fill="#0A223E" d="m1189.34 137.815.98-.237zm-14.64-13.208-.23-.971zm7.71 31.665.24.972zm-4.57-.246.31-.948-1.69-.571.4 1.744zm-1.64 35.823-.96-.265zm-41.2 41.224-.27.964zm-14.28-56.513.97.266zm41.21-41.223.27-.964zm5.17 2.43-.57.822 1.59 1.096-.02-1.927zm23.22-.189c-1.11-4.541-3.37-8.391-6.19-10.932-2.81-2.537-6.27-3.837-9.66-3.01l.47 1.943c2.56-.624 5.36.309 7.85 2.552 2.48 2.239 4.56 5.717 5.58 9.92zm-7.67 19.666c3.39-.826 5.86-3.568 7.2-7.114 1.33-3.551 1.57-8.011.47-12.552l-1.95.473c1.03 4.203.78 8.247-.4 11.376-1.17 3.135-3.23 5.25-5.8 5.874zm-5.13-.271c1.66.562 3.41.689 5.13.271l-.48-1.943c-1.31.319-2.67.231-4.02-.223zm-.66-.722c2.29 9.889 1.94 22.394-1.62 35.333l1.93.531c3.64-13.204 4.01-26.05 1.64-36.314zm-1.62 35.333c-3.68 13.359-10.08 24.558-17.39 31.874-7.34 7.341-15.43 10.624-22.59 8.651l-.53 1.928c8.16 2.248 16.96-1.585 24.53-9.165 7.6-7.603 14.15-19.127 17.91-32.757zm-39.98 40.525c-7.16-1.974-12.42-8.937-14.96-19-2.54-10.03-2.29-22.924 1.39-36.283l-1.93-.532c-3.76 13.63-4.04 26.881-1.4 37.305 2.62 10.39 8.21 18.189 16.37 20.438zm-13.57-55.283c3.68-13.359 10.08-24.558 17.39-31.875 7.34-7.34 15.42-10.624 22.59-8.65l.53-1.928c-8.16-2.249-16.96 1.585-24.53 9.164-7.6 7.604-14.15 19.127-17.91 32.757zm39.98-40.525c1.74.48 3.36 1.252 4.86 2.288l1.14-1.645a18 18 0 0 0-5.47-2.571zm12.8-12.665c-5.4 1.313-8.43 7.379-8.37 14.139l2-.017c-.05-6.374 2.78-11.192 6.84-12.179z" mask="url(#w)"/><path fill="#D4ECFE" d="M1040 220.069h136l-33.23 147h-77.65z"/><path fill="#0A223E" d="M1040 220.069v-.5h-.59l.1.584zm136 0 .49.11.14-.61h-.63zm-33.23 147v.5h.4l.09-.39zm-77.65 0-.49.084.07.416h.42zm-25.12-146.5h136v-1h-136zm135.51-.61-33.23 147 .98.22 33.23-147zm-32.74 146.61h-77.65v1h77.65zm-77.15.416-25.13-147-.98.168 25.12 147z"/><mask id="x" width="138" height="149" x="1039" y="219" maskUnits="userSpaceOnUse" style="mask-type:alpha"><path fill="#D4ECFE" d="M1040 220.069h136l-33.23 147h-77.65z"/><path fill="#0A223E" d="M1040 220.069v-.5h-.59l.1.584zm136 0 .49.11.14-.61h-.63zm-33.23 147v.5h.4l.09-.39zm-77.65 0-.49.084.07.416h.42zm-25.12-146.5h136v-1h-136zm135.51-.61-33.23 147 .98.22 33.23-147zm-32.74 146.61h-77.65v1h77.65zm-77.15.416-25.13-147-.98.168 25.12 147z"/></mask><g stroke="#0A223E" mask="url(#x)"><path d="M1042.95 238.621h133.03M1043.75 244.621h127.19"/></g><path fill="#fff" stroke="#03030F" d="M1088.31 313.542H1033c-1.66 0-3 1.343-3 3v9.911c0 1.657 1.34 3 3 3h55.31c1.66 0 3-1.343 3-3v-9.911c0-1.657-1.34-3-3-3Z"/><path fill="#fff" stroke="#03030F" d="M1037.56 325.523a3.818 3.818 0 1 0 0-7.633 3.826 3.826 0 0 0-3.83 3.816 3.827 3.827 0 0 0 3.83 3.817ZM1088.31 332.453H1033c-1.66 0-3 1.343-3 3v9.911c0 1.657 1.34 3 3 3h55.31c1.66 0 3-1.343 3-3v-9.911c0-1.657-1.34-3-3-3Z"/><path fill="#fff" stroke="#03030F" d="M1037.56 344.227c2.11 0 3.82-1.709 3.82-3.817a3.82 3.82 0 0 0-3.82-3.816c-2.11 0-3.83 1.709-3.83 3.816a3.827 3.827 0 0 0 3.83 3.817Z"/><path fill="#03030F" d="M1088.31 351.364H1033c-1.66 0-3 1.343-3 3v9.911c0 1.657 1.34 3 3 3h55.31c1.66 0 3-1.343 3-3v-9.911c0-1.657-1.34-3-3-3"/><path fill="#fff" d="M1037.56 363.137c2.11 0 3.82-1.709 3.82-3.817a3.82 3.82 0 0 0-3.82-3.816c-2.11 0-3.83 1.709-3.83 3.816a3.827 3.827 0 0 0 3.83 3.817"/><path stroke="#0A223E" d="m1052.2 191.077 11.04 2.456-5.72-7.776M1078.5 150.542l-6.06 4.922-.49-9.646M1114.46 131.721l-7.99 3.502 2.15-8.238M1126.35 102.5l-3.92 4.718 5.17-.834M1083.53 208.448l-.36-6.906M1042.93 125.286l6.89 4.27-2.04-6.608M1068.03 110.34l-2.69-6.368M1044.54 89.242l2.01-2.4M1122.61 91.213l-1.52-5.67M1143 106.337l5.51-2.037M1157 157.337l5.51-2.037M1120.63 205.289l4.25 4.059M1152.42 186.455l5.4 2.32"/><path stroke="#fff" d="m1040.33 156.911-4.98-3.078"/><path stroke="#0A223E" d="m1042.98 158.543-4.98-3.079M1097.19 184.9l3.91-4.358M1040.51 72.941l-6.72-1.64M1024.55 88.126l5.17 3.057-5.34 1.125M1150.31 206.487l-2.52 7.699-2.7-6.369M1140.22 164.317l-2.53 7.699-2.69-6.369M1176.23 175.671l-4.23.332 2.74-3.066"/><mask id="z" fill="#fff"><path fill-rule="evenodd" d="M1189.8 136.385c-3.16 1.347-6.46 1.143-8.98-.271.1-.28.2-.556.32-.829-.23.051-.47.092-.7.124-.95-3.417-.53-7.263 1.43-10.472 1.84-3.002 4.66-4.845 7.68-5.353.89 2.817.69 6.146-.72 9.143 2.65-.701 5.3-.363 7.39.816-.97 2.9-3.27 5.494-6.42 6.842" clip-rule="evenodd"/></mask><path fill="url(#y)" fill-rule="evenodd" d="M1189.8 136.385c-3.16 1.347-6.46 1.143-8.98-.271.1-.28.2-.556.32-.829-.23.051-.47.092-.7.124-.95-3.417-.53-7.263 1.43-10.472 1.84-3.002 4.66-4.845 7.68-5.353.89 2.817.69 6.146-.72 9.143 2.65-.701 5.3-.363 7.39.816-.97 2.9-3.27 5.494-6.42 6.842" clip-rule="evenodd"/><path fill="#000" d="m1180.82 136.114-.96-.347-.26.78.75.421zm8.98.271.43.911zm-8.66-1.1.93.42.79-1.818-1.98.43zm-.7.124-.97.22.24.885.91-.123zm1.43-10.472.87.538zm7.68-5.353.96-.254-.27-.874-.9.151zm-.72 9.143-.92-.446-.92 1.971 2.15-.567zm7.39.816.96.346.26-.779-.74-.422zm-15.87 7.425c2.83 1.592 6.47 1.784 9.88.328l-.87-1.823c-2.9 1.239-5.87 1.023-8.06-.214zm-.14-2.103c-.13.296-.24.597-.35.902l1.92.693c.09-.254.19-.506.29-.755zm.67-.548c-.21.045-.41.082-.62.11l.36 1.964q.39-.054.78-.138zm.53.872c-.87-3.164-.49-6.735 1.33-9.714l-1.74-1.076c-2.1 3.44-2.55 7.561-1.53 11.23zm1.33-9.714c1.71-2.783 4.3-4.455 7.02-4.914l-.42-1.954c-3.31.558-6.37 2.571-8.34 5.792zm5.85-5.636c.81 2.564.63 5.645-.68 8.442l1.84.892c1.5-3.197 1.73-6.775.76-9.843zm8.11 8.849c-2.36-1.326-5.29-1.681-8.17-.918l.61 1.915c2.42-.641 4.78-.32 6.61.712zm-6.47 8.608c3.41-1.454 5.9-4.253 6.95-7.407l-1.92-.693c-.88 2.648-2.99 5.037-5.9 6.277z" mask="url(#z)"/><mask id="B" fill="#fff"><path fill-rule="evenodd" d="M1180.74 136.004c3.51.576 7.22-.507 10.1-3.317 2.34-2.288 3.73-5.325 4.11-8.491-3.5-.576-7.22.507-10.09 3.318-2.35 2.287-3.73 5.324-4.12 8.49" clip-rule="evenodd"/></mask><path fill="url(#A)" fill-rule="evenodd" d="M1180.74 136.004c3.51.576 7.22-.507 10.1-3.317 2.34-2.288 3.73-5.325 4.11-8.491-3.5-.576-7.22.507-10.09 3.318-2.35 2.287-3.73 5.324-4.12 8.49" clip-rule="evenodd"/><path fill="#000" d="m1180.74 136.004-.94-.129-.12 1.015.91.151zm14.21-11.808.95.129.12-1.015-.91-.151zm-4.73 7.709c-2.66 2.593-6.08 3.594-9.33 3.062l-.3 2.074c3.77.619 7.78-.546 10.88-3.573zm3.79-7.837c-.35 2.924-1.63 5.726-3.79 7.837l1.25 1.563c2.52-2.463 4.01-5.736 4.43-9.143zm-8.53 4.227c2.65-2.593 6.08-3.594 9.32-3.062l.31-2.074c-3.78-.619-7.78.546-10.88 3.573zm-3.8 7.837c.36-2.924 1.64-5.726 3.8-7.837l-1.25-1.563c-2.52 2.463-4.01 5.736-4.43 9.143z" mask="url(#B)"/><mask id="D" fill="#fff"><path fill-rule="evenodd" d="M1180.84 136.119c2.44-2.125 3.97-5.508 3.92-9.446a15 15 0 0 0-2.85-8.623c-2.44 2.125-3.97 5.508-3.92 9.446a15 15 0 0 0 2.85 8.623" clip-rule="evenodd"/></mask><path fill="url(#C)" fill-rule="evenodd" d="M1180.84 136.119c2.44-2.125 3.97-5.508 3.92-9.446a15 15 0 0 0-2.85-8.623c-2.44 2.125-3.97 5.508-3.92 9.446a15 15 0 0 0 2.85 8.623" clip-rule="evenodd"/><path fill="#000" d="m1180.84 136.119-.79.539.69.939.79-.691zm1.07-18.069.78-.539-.68-.939-.79.691zm1.86 8.535c.04 3.673-1.39 6.8-3.63 8.747l1.39 1.574c2.64-2.302 4.28-5.942 4.23-10.144zm-2.64-7.996c1.6 2.206 2.6 5.007 2.64 7.996l1.99.177a16.13 16.13 0 0 0-3.07-9.251zm-2.15 8.996c-.04-3.674 1.39-6.8 3.62-8.748l-1.38-1.574c-2.65 2.303-4.28 5.942-4.23 10.145zm2.64 7.995a14 14 0 0 1-2.64-7.995l-1.99-.177a16.1 16.1 0 0 0 3.06 9.25z" mask="url(#D)"/><mask id="F" fill="#fff"><path fill-rule="evenodd" d="M1141.46 59.309c3.73-4.771 8.72-7.858 13.81-8.846 1.9 5.948 1.25 13.177-2.27 19.674 6.51-2.093 12.95-1.927 17.74.097-2.56 5.048-7.92 9.702-14.92 12.308-6.99 2.606-14.02 2.576-19.17.404v.001c-4.45-3.786-7.6-10.029-8.18-17.353-.57-7.325 1.57-14.137 5.36-18.81 3.55 2.914 6.3 7.3 7.63 12.525" clip-rule="evenodd"/></mask><path fill="url(#E)" fill-rule="evenodd" d="M1141.46 59.309c3.73-4.771 8.72-7.858 13.81-8.846 1.9 5.948 1.25 13.177-2.27 19.674 6.51-2.093 12.95-1.927 17.74.097-2.56 5.048-7.92 9.702-14.92 12.308-6.99 2.606-14.02 2.576-19.17.404v.001c-4.45-3.786-7.6-10.029-8.18-17.353-.57-7.325 1.57-14.137 5.36-18.81 3.55 2.914 6.3 7.3 7.63 12.525" clip-rule="evenodd"/><path fill="#000" d="m1141.46 59.309-.97.24.51 1.976 1.24-1.585zm13.81-8.846.94-.3-.27-.857-.87.168zM1153 70.137l-.87-.492-1.21 2.218 2.39-.766zm17.74.097.89.468.49-.972-1.01-.424zm-14.92 12.308-.35-.945zm-19.17.404.37-.928-.67-.282-.46.552zm0 .001-.64.768.76.645.63-.755zm-8.18-17.353-.99.068zm5.36-18.81.62-.78-.77-.63-.63.766zm8.41 13.156c3.6-4.603 8.39-7.55 13.22-8.49l-.39-1.976c-5.34 1.037-10.53 4.265-14.4 9.204zm12.08-9.178c1.81 5.662 1.21 12.606-2.19 18.883l1.74.984c3.64-6.717 4.33-14.231 2.34-20.466zm-1.01 20.335c6.33-2.037 12.52-1.85 17.06.065l.74-1.856c-5.05-2.135-11.74-2.278-18.42-.128zm16.55-1.331c-2.43 4.787-7.58 9.294-14.39 11.831l.71 1.89c7.17-2.675 12.75-7.475 15.45-12.785zm-14.39 11.831c-6.81 2.538-13.58 2.475-18.45.42l-.75 1.857c5.43 2.29 12.73 2.287 19.91-.387zm-18.07 2.008.01-.001-1.52-1.316v.002zm-9.92-17.943c.59 7.559 3.85 14.068 8.53 18.053l1.27-1.535c-4.22-3.588-7.26-9.565-7.81-16.654zm5.57-19.522c-3.96 4.888-6.16 11.962-5.57 19.522l1.99-.136c-.56-7.09 1.51-13.64 5.13-18.098zm9.37 12.929c-1.38-5.415-4.23-9.998-7.97-13.064l-1.24 1.558c3.37 2.763 6 6.951 7.28 11.986z" mask="url(#F)"/><mask id="H" fill="#fff"><path fill-rule="evenodd" d="M1144.54 50.482c3.44 5.012 4.77 11.592 3.11 18.158-1.62 6.417-5.77 11.49-11 14.308-3.43-5.012-4.76-11.592-3.11-18.158 1.63-6.417 5.77-11.49 11-14.308" clip-rule="evenodd"/></mask><path fill="url(#G)" fill-rule="evenodd" d="M1144.54 50.482c3.44 5.012 4.77 11.592 3.11 18.158-1.62 6.417-5.77 11.49-11 14.308-3.43-5.012-4.76-11.592-3.11-18.158 1.63-6.417 5.77-11.49 11-14.308" clip-rule="evenodd"/><path fill="#000" d="m1144.54 50.482.83-.565-.51-.741-.79.426zm-7.89 32.466-.82.565.5.741.8-.426zm7.07-31.9c3.27 4.775 4.55 11.06 2.96 17.346l1.94.49c1.73-6.844.35-13.72-3.25-18.967zm2.96 17.346c-1.55 6.144-5.51 10.987-10.5 13.673l.95 1.761c5.47-2.95 9.8-8.253 11.49-14.943zm-9.2 13.988c-3.28-4.776-4.55-11.06-2.97-17.347l-1.93-.49c-1.73 6.845-.35 13.72 3.25 18.968zm-2.97-17.347c1.56-6.143 5.52-10.986 10.51-13.672l-.95-1.761c-5.48 2.95-9.8 8.253-11.49 14.943z" mask="url(#H)"/><mask id="J" fill="#fff"><path fill-rule="evenodd" d="M1162.79 61.718c-.83 5.715-4.07 11.49-9.36 15.684-5.28 4.194-11.5 5.934-17.05 5.284 1-5.494 4.34-11.129 9.62-15.323 5.29-4.194 11.41-6.074 16.79-5.645" clip-rule="evenodd"/></mask><path fill="url(#I)" fill-rule="evenodd" d="M1162.79 61.718c-.83 5.715-4.07 11.49-9.36 15.684-5.28 4.194-11.5 5.934-17.05 5.284 1-5.494 4.34-11.129 9.62-15.323 5.29-4.194 11.41-6.074 16.79-5.645" clip-rule="evenodd"/><path fill="#000" d="m1162.79 61.718.97.143.16-1.072-1.05-.084zm-26.41 20.968-.96-.179-.2 1.066 1.04.122zm25.43-21.11c-.79 5.436-3.88 10.98-8.97 15.023l1.19 1.607c5.47-4.345 8.86-10.35 9.73-16.345zm-8.97 15.023c-5.09 4.042-11.06 5.696-16.34 5.077l-.24 2.02c5.82.682 12.3-1.146 17.77-5.49zm-15.49 6.265c.95-5.22 4.14-10.641 9.25-14.698l-1.19-1.607c-5.46 4.332-8.95 10.18-9.99 15.948zm9.25-14.698c5.11-4.055 10.99-5.843 16.1-5.434l.17-2.027c-5.65-.45-12.01 1.523-17.46 5.854z" mask="url(#J)"/><mask id="L" fill="#fff"><path fill-rule="evenodd" d="M1040.88 57.476c.44 4.037-.77 7.756-2.98 10.197-.37-.274-.73-.574-1.07-.899.21.938.3 1.873.28 2.783-3.2.175-6.76-1.229-9.58-4.096s-4.26-6.548-4.18-9.885c3.19-.175 6.75 1.23 9.57 4.097.04.036.07.072.11.108-.11-.52-.2-1.052-.26-1.596-.44-4.036.76-7.755 2.98-10.196 2.7 2.011 4.69 5.45 5.13 9.487" clip-rule="evenodd"/></mask><path fill="url(#K)" fill-rule="evenodd" d="M1040.88 57.476c.44 4.037-.77 7.756-2.98 10.197-.37-.274-.73-.574-1.07-.899.21.938.3 1.873.28 2.783-3.2.175-6.76-1.229-9.58-4.096s-4.26-6.548-4.18-9.885c3.19-.175 6.75 1.23 9.57 4.097.04.036.07.072.11.108-.11-.52-.2-1.052-.26-1.596-.44-4.036.76-7.755 2.98-10.196 2.7 2.011 4.69 5.45 5.13 9.487" clip-rule="evenodd"/><path fill="#000" d="m1037.9 67.673-.59.796.73.546.6-.66zm2.98-10.197.99-.083zm-4.05 9.298.69-.713-2.34-2.235.68 3.135zm.28 2.783.08.998.89-.049.03-.9zm-9.58-4.096-.7.691zm-4.18-9.885-.08-.998-.9.05-.02.9zm9.57 4.097-.7.691zm.11.108-.71.684 2.42 2.515-.73-3.388zm-.26-1.596-1 .084zm2.98-10.196.58-.796-.73-.546-.6.66zm2.89 20.366c2.42-2.667 3.7-6.672 3.23-10.962l-1.99.167c.41 3.782-.72 7.215-2.73 9.431zm-2.49-.867c.37.353.76.681 1.16.981l1.17-1.593q-.495-.371-.96-.815zm-.29-.527c.18.864.27 1.72.25 2.547l2 .098c.02-.992-.08-2.007-.3-3.018zm1.17 1.598c-2.87.157-6.15-1.107-8.79-3.79l-1.41 1.383c3 3.052 6.84 4.596 10.36 4.403zm-8.79-3.79c-2.64-2.683-3.96-6.101-3.89-9.144l-2-.098c-.09 3.63 1.48 7.574 4.48 10.625zm-4.81-8.195c2.86-.157 6.15 1.107 8.79 3.79l1.41-1.383c-3-3.051-6.84-4.596-10.36-4.403zm8.79 3.79c.03.034.06.068.1.101l1.42-1.369c-.04-.038-.07-.076-.11-.115zm-.45-2.095c.07.579.16 1.146.28 1.7l1.96-.377c-.11-.485-.19-.982-.25-1.49zm3.23-10.962c-2.42 2.667-3.69 6.672-3.23 10.962l1.99-.167c-.41-3.783.73-7.216 2.74-9.431zm6.87 10.086c-.47-4.29-2.58-8.001-5.54-10.2l-1.17 1.592c2.45 1.823 4.31 4.992 4.72 8.775z" mask="url(#L)"/><mask id="N" fill="#fff"><path fill-rule="evenodd" d="M1037.1 69.557c3.49-1.42 6.47-4.662 7.85-9.05 1.38-4.386.83-8.925-1.14-12.344-3.48 1.42-6.47 4.662-7.84 9.05-1.38 4.386-.83 8.925 1.13 12.344" clip-rule="evenodd"/></mask><path fill="url(#M)" fill-rule="evenodd" d="M1037.1 69.557c3.49-1.42 6.47-4.662 7.85-9.05 1.38-4.386.83-8.925-1.14-12.344-3.48 1.42-6.47 4.662-7.84 9.05-1.38 4.386-.83 8.925 1.13 12.344" clip-rule="evenodd"/><path fill="#000" d="m1037.1 69.557-.84.492.45.775.79-.322zm6.71-21.394.85-.492-.45-.776-.79.322zm.2 12c-1.29 4.134-4.1 7.144-7.3 8.45l.79 1.89c3.76-1.535 6.93-5.01 8.39-9.65zm-1.04-11.508c1.81 3.143 2.34 7.375 1.04 11.508l1.88.69c1.45-4.642.89-9.488-1.23-13.182zm-6.06 8.902c1.29-4.134 4.09-7.144 7.3-8.45l-.79-1.89c-3.76 1.535-6.94 5.01-8.39 9.65zm1.04 11.508c-1.81-3.143-2.34-7.375-1.04-11.508l-1.88-.69c-1.46 4.642-.89 9.488 1.23 13.182z" mask="url(#N)"/><mask id="P" fill="#fff"><path fill-rule="evenodd" d="M1030.41 48.112c3.36 1.67 6.2 5.08 7.44 9.477s.61 8.786-1.38 11.966c-3.36-1.67-6.19-5.08-7.43-9.478-1.25-4.397-.61-8.786 1.37-11.965" clip-rule="evenodd"/></mask><path fill="url(#O)" fill-rule="evenodd" d="M1030.41 48.112c3.36 1.67 6.2 5.08 7.44 9.477s.61 8.786-1.38 11.966c-3.36-1.67-6.19-5.08-7.43-9.478-1.25-4.397-.61-8.786 1.37-11.965" clip-rule="evenodd"/><path fill="#000" d="m1030.41 48.112.45-.896-.81-.404-.48.77zm6.06 21.443-.45.895.82.404.48-.77zm-6.5-20.548c3.08 1.532 5.74 4.7 6.92 8.854l1.92-.543c-1.31-4.642-4.32-8.294-7.95-10.102zm6.92 8.854c1.17 4.153.56 8.247-1.27 11.164l1.7 1.06c2.15-3.442 2.8-8.127 1.49-12.767zm.03 10.798c-3.09-1.532-5.75-4.7-6.92-8.854l-1.93.544c1.31 4.641 4.32 8.293 7.95 10.101zm-6.92-8.854c-1.18-4.153-.56-8.246 1.26-11.163l-1.69-1.06c-2.16 3.442-2.81 8.126-1.5 12.767z" mask="url(#P)"/><defs><linearGradient id="e" x1="932.654" x2="874.123" y1="309.542" y2="358.724" gradientUnits="userSpaceOnUse"><stop stop-color="#98E8FC"/><stop offset=".552" stop-color="#1FA9FF"/><stop offset="1" stop-color="#8980F6"/></linearGradient><linearGradient id="f" x1="675.56" x2="648.392" y1="118.542" y2="132.562" gradientUnits="userSpaceOnUse"><stop stop-color="#98E8FC"/><stop offset=".552" stop-color="#1FA9FF"/><stop offset="1" stop-color="#8980F6"/></linearGradient><linearGradient id="g" x1="651.913" x2="624.746" y1="118.542" y2="132.562" gradientUnits="userSpaceOnUse"><stop stop-color="#98E8FC"/><stop offset=".552" stop-color="#1FA9FF"/><stop offset="1" stop-color="#8980F6"/></linearGradient><linearGradient id="h" x1="699.206" x2="672.039" y1="118.542" y2="132.562" gradientUnits="userSpaceOnUse"><stop stop-color="#98E8FC"/><stop offset=".552" stop-color="#1FA9FF"/><stop offset="1" stop-color="#8980F6"/></linearGradient><linearGradient id="y" x1="1199.12" x2="1169.87" y1="142.707" y2="133.071" gradientUnits="userSpaceOnUse"><stop stop-color="#98E8FC"/><stop offset=".552" stop-color="#1FA9FF"/><stop offset="1" stop-color="#8980F6"/></linearGradient><linearGradient id="A" x1="1199.15" x2="1177.89" y1="129.447" y2="125.093" gradientUnits="userSpaceOnUse"><stop stop-color="#98E8FC"/><stop offset=".552" stop-color="#1FA9FF"/><stop offset="1" stop-color="#8980F6"/></linearGradient><linearGradient id="C" x1="1187.67" x2="1171.06" y1="118.562" y2="128.782" gradientUnits="userSpaceOnUse"><stop stop-color="#98E8FC"/><stop offset=".552" stop-color="#1FA9FF"/><stop offset="1" stop-color="#8980F6"/></linearGradient><linearGradient id="E" x1="1193.11" x2="1139.9" y1="67.44" y2="111.617" gradientUnits="userSpaceOnUse"><stop stop-color="#98E8FC"/><stop offset=".552" stop-color="#1FA9FF"/><stop offset="1" stop-color="#8980F6"/></linearGradient><linearGradient id="G" x1="1158.05" x2="1119.52" y1="53.896" y2="69.952" gradientUnits="userSpaceOnUse"><stop stop-color="#98E8FC"/><stop offset=".552" stop-color="#1FA9FF"/><stop offset="1" stop-color="#8980F6"/></linearGradient><linearGradient id="I" x1="1169.92" x2="1135.06" y1="71.359" y2="58.841" gradientUnits="userSpaceOnUse"><stop stop-color="#98E8FC"/><stop offset=".552" stop-color="#1FA9FF"/><stop offset="1" stop-color="#8980F6"/></linearGradient><linearGradient id="K" x1="1048.44" x2="1027.63" y1="47.983" y2="77.477" gradientUnits="userSpaceOnUse"><stop stop-color="#98E8FC"/><stop offset=".552" stop-color="#1FA9FF"/><stop offset="1" stop-color="#8980F6"/></linearGradient><linearGradient id="M" x1="1052.28" x2="1026.64" y1="51.268" y2="59.48" gradientUnits="userSpaceOnUse"><stop stop-color="#98E8FC"/><stop offset=".552" stop-color="#1FA9FF"/><stop offset="1" stop-color="#8980F6"/></linearGradient><linearGradient id="O" x1="1038.72" x2="1021.86" y1="45.767" y2="66.494" gradientUnits="userSpaceOnUse"><stop stop-color="#98E8FC"/><stop offset=".552" stop-color="#1FA9FF"/><stop offset="1" stop-color="#8980F6"/></linearGradient></defs></svg>